<svg id="svg" version="1.1" xmlns="http://www.w3.org/2000/svg" xmlns:xlink="http://www.w3.org/1999/xlink" width="400" height="267.5514266755143" viewBox="0, 0, 400,267.5514266755143"><g id="svgg"><path id="path0" d="M5.457 6.345 C 5.375 6.477,5.061 6.521,4.758 6.442 C 4.427 6.355,3.905 6.523,3.442 6.865 C 3.021 7.177,2.575 7.432,2.453 7.432 C 1.607 7.432,1.212 10.535,1.354 16.058 C 1.373 16.788,1.364 18.185,1.335 19.161 C 1.256 21.779,1.332 21.894,4.040 23.254 C 6.368 24.424,10.838 25.084,11.557 24.365 C 11.646 24.275,12.067 24.302,12.492 24.424 C 12.948 24.555,13.328 24.543,13.419 24.395 C 13.504 24.258,13.707 24.228,13.871 24.329 C 14.374 24.640,19.376 24.941,19.376 24.661 C 19.376 24.569,19.884 24.547,20.504 24.611 C 22.001 24.767,26.140 24.978,27.472 24.967 C 31.374 24.935,32.354 24.945,33.195 25.028 C 33.714 25.080,34.273 25.205,34.437 25.306 C 34.601 25.407,34.793 25.396,34.864 25.281 C 34.935 25.166,35.451 25.116,36.010 25.170 C 38.031 25.364,41.476 25.253,41.744 24.984 C 41.934 24.795,42.192 24.803,42.575 25.010 C 42.882 25.176,44.207 25.330,45.521 25.354 C 46.835 25.377,48.193 25.488,48.540 25.600 C 49.015 25.753,49.120 25.721,48.963 25.468 C 48.812 25.223,48.911 25.173,49.328 25.282 C 49.642 25.364,49.967 25.323,50.049 25.190 C 50.137 25.048,50.400 25.057,50.691 25.213 C 51.033 25.396,51.215 25.386,51.284 25.180 C 51.348 24.987,51.797 25.095,52.565 25.486 C 53.215 25.818,54.088 26.079,54.505 26.067 C 54.922 26.056,55.550 26.155,55.900 26.288 C 56.250 26.421,56.536 26.443,56.536 26.337 C 56.536 26.002,58.751 26.226,59.799 26.667 C 60.353 26.900,60.910 27.026,61.037 26.948 C 61.214 26.839,65.167 28.234,65.496 28.522 C 65.533 28.554,65.354 28.833,65.098 29.141 C 64.842 29.449,64.393 30.000,64.101 30.366 C 63.809 30.731,63.420 31.036,63.238 31.043 C 62.815 31.058,61.126 32.821,60.628 33.767 C 60.363 34.268,60.114 34.436,59.808 34.319 C 59.526 34.210,59.433 34.254,59.549 34.442 C 59.649 34.603,59.131 35.370,58.399 36.146 C 57.666 36.922,57.067 37.634,57.067 37.728 C 57.067 38.093,55.533 39.520,55.334 39.340 C 55.219 39.236,55.205 39.292,55.304 39.464 C 55.402 39.637,55.180 40.234,54.810 40.791 C 54.440 41.349,53.990 42.034,53.811 42.313 C 53.631 42.593,53.275 43.041,53.019 43.309 C 52.764 43.576,52.555 43.850,52.555 43.917 C 52.555 44.115,51.338 45.847,50.868 46.317 C 50.628 46.557,50.431 47.036,50.431 47.381 C 50.431 48.361,49.979 49.309,49.428 49.484 C 48.863 49.663,47.754 51.873,47.820 52.687 C 47.844 52.979,47.475 53.868,47.001 54.663 C 46.501 55.500,46.100 56.571,46.048 57.210 C 45.998 57.832,45.660 58.752,45.275 59.319 C 44.899 59.873,44.592 60.638,44.592 61.019 C 44.592 61.400,44.357 62.329,44.070 63.083 C 43.767 63.883,43.531 65.210,43.505 66.268 C 43.481 67.275,43.282 68.434,43.059 68.872 C 42.839 69.307,42.620 70.561,42.573 71.659 C 42.527 72.758,42.424 73.918,42.345 74.237 C 42.266 74.557,42.327 74.896,42.480 74.991 C 42.651 75.096,42.667 75.283,42.519 75.472 C 42.178 75.910,42.327 85.702,42.689 86.594 C 42.852 86.994,42.908 87.521,42.814 87.765 C 42.696 88.073,42.743 88.148,42.968 88.009 C 43.209 87.860,43.290 88.174,43.283 89.226 C 43.262 92.423,43.491 94.153,44.172 95.915 C 44.558 96.916,44.809 97.943,44.729 98.196 C 44.648 98.451,44.827 98.967,45.131 99.353 C 45.542 99.875,46.158 102.121,46.183 103.185 C 46.184 103.222,46.334 103.251,46.516 103.251 C 46.699 103.251,46.862 103.580,46.879 103.981 C 46.926 105.081,48.486 109.154,48.963 109.421 C 49.193 109.549,49.311 109.767,49.226 109.905 C 49.140 110.043,49.250 110.225,49.469 110.309 C 49.688 110.393,49.804 110.627,49.726 110.829 C 49.648 111.031,50.033 111.744,50.582 112.413 C 51.338 113.336,51.570 113.849,51.544 114.543 C 51.516 115.270,51.670 115.576,52.297 116.040 C 52.731 116.361,53.086 116.841,53.086 117.108 C 53.086 117.702,54.851 120.412,55.367 120.610 C 55.572 120.689,55.740 120.940,55.740 121.167 C 55.740 121.589,57.727 124.280,58.158 124.441 C 58.288 124.490,58.394 124.690,58.394 124.886 C 58.394 125.081,58.723 125.579,59.124 125.992 C 59.526 126.404,60.022 127.068,60.228 127.467 C 60.434 127.866,60.793 128.253,61.025 128.327 C 61.257 128.401,61.602 128.811,61.791 129.238 C 61.980 129.665,62.422 130.203,62.773 130.433 C 63.123 130.662,63.899 131.330,64.496 131.915 C 65.093 132.500,65.685 132.979,65.811 132.979 C 66.454 132.979,66.615 134.625,66.021 135.121 C 65.328 135.699,62.556 136.684,61.383 136.769 C 60.935 136.802,60.624 136.918,60.692 137.027 C 60.759 137.137,60.658 137.233,60.467 137.242 C 58.138 137.347,57.202 137.484,57.120 137.730 C 57.066 137.893,56.883 137.940,56.713 137.834 C 56.293 137.574,51.493 137.543,51.493 137.801 C 51.493 137.914,51.314 137.937,51.095 137.853 C 50.876 137.769,50.697 137.829,50.697 137.986 C 50.697 138.143,50.518 138.203,50.299 138.119 C 50.080 138.035,49.900 138.068,49.900 138.193 C 49.899 138.318,48.974 138.445,47.843 138.475 C 45.596 138.535,45.390 138.536,42.468 138.512 C 41.374 138.503,39.940 138.506,39.283 138.518 C 38.626 138.531,36.954 138.503,35.567 138.457 C 34.180 138.411,32.726 138.482,32.335 138.615 C 31.854 138.779,31.428 138.753,31.020 138.535 C 30.688 138.357,30.381 138.321,30.336 138.454 C 30.241 138.740,28.067 138.707,27.589 138.411 C 27.394 138.291,27.324 138.314,27.419 138.468 C 27.520 138.631,26.888 138.718,25.735 138.699 C 24.719 138.682,23.889 138.756,23.889 138.863 C 23.889 138.970,23.486 138.889,22.993 138.683 C 22.501 138.477,22.045 138.362,21.980 138.427 C 21.915 138.492,21.154 138.614,20.288 138.699 C 18.439 138.880,18.537 138.879,16.921 138.731 C 16.227 138.667,15.660 138.728,15.660 138.865 C 15.660 139.003,15.546 139.045,15.406 138.958 C 15.266 138.872,14.101 138.760,12.818 138.709 C 11.535 138.659,10.256 138.523,9.976 138.408 C 9.680 138.285,9.531 138.299,9.619 138.442 C 9.707 138.583,8.999 138.665,7.938 138.636 C 6.930 138.609,6.105 138.695,6.105 138.827 C 6.105 138.959,5.926 138.999,5.707 138.915 C 5.452 138.817,5.309 138.920,5.309 139.202 C 5.309 139.444,5.109 140.024,4.866 140.491 C 4.622 140.958,4.394 141.699,4.358 142.137 C 4.323 142.575,4.203 143.709,4.093 144.658 C 3.982 145.607,3.906 146.682,3.923 147.047 C 3.993 148.492,4.199 149.940,4.376 150.227 C 4.479 150.394,4.417 150.882,4.239 151.313 C 3.932 152.053,4.195 153.906,4.744 154.877 C 4.827 155.023,4.860 155.405,4.819 155.727 C 4.708 156.585,6.924 157.659,8.223 157.376 C 8.731 157.266,9.317 157.271,9.525 157.387 C 9.733 157.503,10.303 157.488,10.792 157.353 C 11.318 157.208,11.854 157.205,12.105 157.345 C 12.338 157.476,13.023 157.493,13.627 157.382 C 14.239 157.270,14.931 157.292,15.192 157.432 C 15.462 157.577,15.660 157.582,15.660 157.443 C 15.660 157.312,16.168 157.252,16.788 157.310 C 17.409 157.369,18.573 157.443,19.376 157.474 C 20.179 157.506,20.985 157.628,21.168 157.746 C 21.351 157.864,21.500 157.849,21.500 157.711 C 21.500 157.348,22.876 157.141,23.405 157.424 C 23.653 157.557,23.915 157.571,23.986 157.456 C 24.057 157.340,24.572 157.282,25.130 157.327 C 25.688 157.371,26.443 157.393,26.808 157.374 C 27.680 157.328,28.026 157.344,29.529 157.495 C 30.222 157.565,30.790 157.537,30.790 157.434 C 30.790 157.248,31.549 157.262,33.561 157.483 C 34.136 157.546,34.957 157.498,35.386 157.375 C 35.855 157.240,36.365 157.257,36.663 157.417 C 36.996 157.595,37.160 157.595,37.160 157.415 C 37.160 157.239,37.386 157.233,37.814 157.395 C 38.174 157.532,38.529 157.546,38.603 157.426 C 38.729 157.223,41.752 157.217,42.336 157.420 C 42.482 157.470,42.870 157.363,43.198 157.180 C 43.564 156.978,43.976 156.936,44.260 157.072 C 44.516 157.195,45.262 157.276,45.919 157.253 C 46.576 157.230,47.315 157.314,47.562 157.439 C 47.813 157.566,48.073 157.564,48.153 157.434 C 48.277 157.234,49.784 157.211,50.564 157.398 C 50.710 157.433,50.889 157.439,50.962 157.412 C 51.278 157.294,52.721 157.089,53.086 157.111 C 53.305 157.124,53.991 157.168,54.612 157.208 C 55.232 157.248,55.740 157.179,55.740 157.056 C 55.740 156.933,55.979 156.908,56.271 157.001 C 56.597 157.104,56.802 157.048,56.802 156.855 C 56.802 156.645,57.018 156.683,57.457 156.971 C 57.896 157.258,58.070 157.289,57.984 157.064 C 57.890 156.821,58.231 156.723,59.210 156.709 C 59.999 156.698,60.652 156.549,60.773 156.353 C 60.933 156.095,61.112 156.087,61.546 156.319 C 61.856 156.485,62.110 156.527,62.110 156.413 C 62.110 156.298,62.558 156.213,63.106 156.223 C 63.653 156.233,64.310 156.065,64.566 155.849 C 64.937 155.537,65.168 155.518,65.695 155.758 C 66.163 155.972,66.357 155.976,66.357 155.772 C 66.357 155.614,66.532 155.551,66.747 155.634 C 66.961 155.716,67.208 155.667,67.296 155.525 C 67.384 155.383,67.561 155.332,67.689 155.411 C 67.818 155.491,68.057 155.305,68.221 154.999 C 68.501 154.476,68.556 154.468,69.166 154.867 C 69.606 155.155,69.791 155.186,69.744 154.963 C 69.706 154.783,69.794 154.626,69.940 154.614 C 70.086 154.603,70.474 154.444,70.803 154.261 C 71.131 154.079,71.400 154.017,71.400 154.125 C 71.400 154.232,71.535 154.185,71.699 154.021 C 71.900 153.820,72.211 153.802,72.643 153.967 C 73.092 154.137,73.235 154.125,73.112 153.926 C 73.005 153.753,73.131 153.669,73.428 153.713 C 73.700 153.753,74.459 153.502,75.116 153.154 C 75.773 152.807,76.634 152.528,77.028 152.536 C 77.423 152.543,77.738 152.475,77.727 152.386 C 77.671 151.916,77.819 151.832,78.273 152.075 C 78.641 152.272,78.858 152.247,79.078 151.981 C 79.245 151.780,80.272 151.343,81.362 151.009 C 82.453 150.674,83.344 150.296,83.344 150.168 C 83.344 150.040,83.456 150.004,83.591 150.088 C 83.727 150.172,83.915 150.118,84.008 149.967 C 84.101 149.816,84.289 149.761,84.424 149.845 C 84.560 149.929,84.672 149.875,84.672 149.725 C 84.672 149.575,84.870 149.529,85.113 149.622 C 85.389 149.728,85.490 149.686,85.381 149.510 C 85.277 149.342,85.576 149.159,86.126 149.056 C 86.632 148.961,87.142 148.713,87.259 148.503 C 87.439 148.182,87.577 148.178,88.150 148.475 C 88.523 148.669,90.252 149.456,91.992 150.224 C 93.732 150.993,95.328 151.757,95.537 151.922 C 95.839 152.160,95.887 152.138,95.767 151.816 C 95.531 151.185,97.004 151.370,98.872 152.207 C 102.170 153.684,103.400 154.167,103.915 154.189 C 105.336 154.249,106.390 154.452,107.268 154.836 C 107.979 155.146,108.454 155.193,109.080 155.013 C 109.793 154.809,110.223 154.911,111.782 155.656 C 112.802 156.143,113.583 156.402,113.518 156.232 C 113.351 155.797,116.282 156.020,117.586 156.540 C 118.296 156.824,120.777 156.793,121.260 156.495 C 121.420 156.396,121.898 156.495,122.323 156.715 C 122.877 157.001,123.324 157.049,123.903 156.883 C 124.348 156.755,124.781 156.720,124.865 156.805 C 125.078 157.018,127.405 157.098,127.405 156.893 C 127.405 156.664,130.341 156.768,130.966 157.019 C 131.299 157.153,131.414 157.127,131.300 156.942 C 131.077 156.582,132.775 156.250,133.749 156.464 C 134.266 156.577,134.684 156.458,135.205 156.048 C 135.820 155.565,136.042 155.521,136.594 155.772 C 137.403 156.141,137.570 156.148,137.359 155.806 C 137.141 155.454,137.255 155.469,138.388 155.943 C 139.199 156.281,139.350 156.286,139.350 155.972 C 139.350 155.756,139.743 155.526,140.286 155.424 C 140.801 155.328,141.167 155.160,141.100 155.051 C 141.033 154.942,141.776 154.872,142.752 154.895 C 144.346 154.933,144.581 154.870,145.073 154.274 C 145.556 153.690,145.694 153.650,146.233 153.939 C 146.723 154.201,146.805 154.200,146.639 153.933 C 146.490 153.691,146.590 153.640,147.006 153.749 C 147.320 153.831,147.578 153.778,147.578 153.630 C 147.578 153.482,147.757 153.429,147.976 153.513 C 148.195 153.597,148.374 153.554,148.374 153.417 C 148.374 153.281,148.553 153.237,148.772 153.321 C 148.992 153.406,149.171 153.329,149.171 153.152 C 149.171 152.975,149.344 152.896,149.555 152.977 C 149.780 153.064,150.001 152.931,150.088 152.659 C 150.201 152.303,150.487 152.205,151.296 152.246 C 151.879 152.276,152.356 152.186,152.356 152.047 C 152.356 151.908,152.475 151.867,152.621 151.958 C 152.767 152.048,152.887 151.995,152.887 151.840 C 152.887 151.686,153.057 151.559,153.266 151.559 C 153.474 151.559,153.832 151.373,154.060 151.144 C 154.288 150.916,154.587 150.799,154.724 150.883 C 154.861 150.968,155.050 150.914,155.143 150.763 C 155.236 150.612,155.423 150.558,155.559 150.642 C 155.695 150.726,155.806 150.655,155.806 150.485 C 155.806 150.312,155.991 150.246,156.224 150.336 C 156.454 150.424,156.822 150.316,157.042 150.096 C 157.262 149.876,157.551 149.764,157.686 149.847 C 157.820 149.930,157.930 149.825,157.930 149.613 C 157.930 149.185,158.638 148.820,159.015 149.053 C 159.148 149.135,159.257 149.083,159.257 148.938 C 159.257 148.793,159.675 148.523,160.186 148.338 C 160.697 148.153,161.115 147.900,161.115 147.774 C 161.115 147.649,161.233 147.620,161.377 147.709 C 161.637 147.869,161.923 147.686,163.059 146.629 C 163.385 146.327,163.797 146.128,163.976 146.187 C 164.154 146.246,164.300 146.169,164.300 146.016 C 164.300 145.862,164.479 145.805,164.698 145.889 C 164.917 145.973,165.096 145.910,165.096 145.748 C 165.096 145.587,165.186 145.469,165.295 145.486 C 165.803 145.566,166.136 145.404,166.773 144.767 C 167.151 144.390,167.562 144.144,167.687 144.221 C 167.812 144.298,168.133 144.070,168.400 143.713 C 168.668 143.357,169.036 143.066,169.219 143.066 C 169.402 143.066,169.620 142.887,169.704 142.668 C 169.789 142.449,170.040 142.269,170.264 142.269 C 170.487 142.269,170.670 142.154,170.670 142.012 C 170.670 141.871,170.839 141.820,171.044 141.899 C 171.268 141.984,171.487 141.826,171.589 141.506 C 171.687 141.197,171.912 141.028,172.120 141.108 C 172.327 141.187,172.552 141.019,172.651 140.710 C 172.744 140.415,173.054 140.099,173.338 140.009 C 173.623 139.919,173.855 139.726,173.855 139.582 C 173.855 139.437,173.961 139.384,174.091 139.464 C 174.220 139.544,174.474 139.431,174.654 139.214 C 174.834 138.997,175.147 138.819,175.348 138.819 C 175.549 138.819,175.713 138.695,175.713 138.544 C 175.713 138.394,176.064 137.928,176.492 137.509 C 176.920 137.091,177.189 136.657,177.089 136.547 C 176.989 136.436,177.034 136.417,177.189 136.505 C 177.344 136.593,178.001 136.194,178.649 135.619 C 179.297 135.043,179.948 134.573,180.094 134.572 C 180.241 134.572,180.523 134.207,180.721 133.760 C 180.918 133.314,181.144 133.013,181.223 133.092 C 181.384 133.253,182.349 132.220,182.349 131.885 C 182.349 131.766,182.548 131.745,182.791 131.838 C 183.088 131.952,183.170 131.906,183.040 131.697 C 182.935 131.527,182.949 131.387,183.072 131.387 C 183.196 131.387,183.524 130.999,183.803 130.524 C 184.419 129.476,184.872 128.998,185.250 128.998 C 185.406 128.998,185.534 128.826,185.534 128.616 C 185.534 128.406,186.007 127.688,186.585 127.020 C 187.163 126.352,187.878 125.259,188.173 124.591 C 188.469 123.923,188.934 123.318,189.206 123.247 C 189.479 123.176,189.910 122.679,190.163 122.143 C 190.416 121.606,191.025 120.560,191.515 119.817 C 192.005 119.075,192.443 118.298,192.487 118.092 C 192.532 117.886,192.637 117.658,192.721 117.585 C 192.805 117.512,193.521 116.283,194.313 114.855 C 195.105 113.427,196.129 111.583,196.589 110.759 C 197.049 109.935,197.365 109.104,197.292 108.914 C 197.219 108.723,197.478 108.022,197.868 107.357 C 198.257 106.692,198.525 106.003,198.462 105.828 C 198.400 105.652,198.589 105.030,198.883 104.446 C 199.178 103.862,199.459 103.041,199.509 102.621 C 199.559 102.202,199.839 101.471,200.131 100.998 C 200.424 100.524,200.652 99.852,200.637 99.504 C 200.623 99.156,200.694 98.215,200.796 97.412 C 200.897 96.609,201.006 95.707,201.039 95.408 C 201.071 95.109,201.206 94.691,201.339 94.479 C 201.605 94.053,201.741 92.444,201.831 88.653 C 201.864 87.266,202.024 85.886,202.187 85.587 C 202.596 84.836,202.387 81.061,201.867 79.821 C 201.569 79.110,201.524 78.678,201.710 78.330 C 201.854 78.061,201.913 77.781,201.841 77.709 C 201.769 77.637,201.826 77.274,201.968 76.901 C 202.141 76.446,202.128 75.887,201.930 75.205 C 201.767 74.645,201.663 73.918,201.699 73.589 C 201.734 73.260,201.578 72.620,201.351 72.165 C 200.949 71.359,200.493 68.938,200.620 68.288 C 200.704 67.858,199.921 66.357,199.612 66.357 C 199.479 66.357,199.435 65.956,199.515 65.465 C 199.611 64.870,199.473 64.151,199.100 63.308 C 198.792 62.612,198.540 61.875,198.540 61.670 C 198.540 61.465,198.349 61.224,198.116 61.135 C 197.808 61.016,197.735 60.762,197.847 60.201 C 197.942 59.726,197.901 59.492,197.740 59.591 C 197.596 59.680,197.478 59.463,197.478 59.106 C 197.478 58.750,197.297 58.308,197.074 58.124 C 196.846 57.934,196.737 57.579,196.823 57.306 C 196.923 56.992,196.786 56.705,196.431 56.484 C 196.131 56.296,195.886 55.978,195.886 55.775 C 195.886 55.364,194.345 52.231,194.041 52.024 C 193.934 51.951,193.631 51.320,193.367 50.621 C 193.103 49.923,192.752 49.266,192.587 49.162 C 192.422 49.057,192.060 48.456,191.782 47.825 C 191.487 47.157,190.968 46.519,190.538 46.297 C 190.052 46.045,189.853 45.776,189.955 45.509 C 190.041 45.286,189.889 44.858,189.618 44.558 C 189.346 44.258,189.111 43.875,189.095 43.705 C 189.013 42.847,188.957 42.734,188.612 42.734 C 188.407 42.734,187.924 42.196,187.539 41.539 C 187.154 40.883,186.725 40.345,186.585 40.345 C 186.445 40.345,186.330 40.170,186.330 39.956 C 186.330 39.742,186.102 39.445,185.823 39.296 C 185.544 39.147,185.041 38.579,184.704 38.035 C 184.368 37.490,183.461 36.408,182.690 35.631 C 181.918 34.853,181.287 34.051,181.287 33.848 C 181.287 33.646,181.044 33.402,180.746 33.308 C 180.449 33.214,179.895 32.668,179.516 32.095 C 179.138 31.523,178.396 30.793,177.868 30.473 C 176.713 29.773,175.713 28.765,175.713 28.300 C 175.713 28.113,175.116 27.681,174.386 27.339 C 173.656 26.997,173.059 26.559,173.059 26.365 C 173.059 26.171,172.935 26.012,172.783 26.012 C 172.631 26.012,172.064 25.560,171.522 25.008 C 170.981 24.456,169.910 23.719,169.144 23.370 C 168.255 22.966,167.750 22.572,167.750 22.283 C 167.750 21.994,167.277 21.627,166.438 21.266 C 165.715 20.955,164.969 20.492,164.779 20.238 C 164.588 19.983,164.297 19.749,164.131 19.718 C 163.966 19.687,163.454 19.286,162.995 18.827 C 162.433 18.265,161.989 18.036,161.637 18.128 C 161.350 18.203,161.115 18.184,161.115 18.085 C 161.115 17.986,160.215 17.442,159.116 16.877 C 158.016 16.311,157.054 15.746,156.977 15.621 C 156.900 15.497,156.559 15.395,156.221 15.395 C 155.614 15.395,154.362 14.883,150.553 13.079 C 149.488 12.574,148.451 12.225,148.248 12.303 C 148.046 12.381,147.395 12.210,146.802 11.924 C 146.210 11.638,145.276 11.357,144.727 11.301 C 144.178 11.244,143.520 11.114,143.265 11.012 C 142.987 10.901,142.800 10.946,142.800 11.125 C 142.800 11.300,142.331 11.174,141.672 10.823 C 140.138 10.006,139.588 9.870,138.872 10.128 C 138.438 10.285,137.949 10.190,137.184 9.799 C 136.496 9.448,135.469 9.221,134.344 9.170 C 133.375 9.127,132.372 9.003,132.117 8.897 C 131.833 8.778,131.652 8.820,131.652 9.003 C 131.652 9.202,131.380 9.163,130.849 8.888 C 130.260 8.584,129.817 8.535,129.190 8.706 C 128.623 8.860,128.075 8.831,127.567 8.621 C 126.991 8.383,123.291 8.277,123.291 8.499 C 123.291 8.519,121.943 8.567,120.294 8.606 C 118.544 8.646,117.174 8.798,117.002 8.970 C 116.787 9.185,116.559 9.186,116.163 8.974 C 115.763 8.760,115.592 8.763,115.518 8.988 C 115.462 9.156,115.292 9.217,115.140 9.123 C 114.773 8.896,112.276 8.783,112.276 8.993 C 112.276 9.083,111.709 9.182,111.015 9.212 C 110.322 9.242,109.278 9.288,108.696 9.314 C 108.113 9.341,107.508 9.538,107.351 9.753 C 107.098 10.100,105.294 10.391,103.318 10.404 C 102.974 10.406,102.721 10.572,102.721 10.794 C 102.721 11.006,102.616 11.114,102.487 11.035 C 102.359 10.956,101.380 11.121,100.312 11.401 C 99.243 11.682,98.284 11.858,98.179 11.793 C 98.074 11.729,97.946 11.801,97.895 11.954 C 97.844 12.107,97.506 12.271,97.143 12.319 C 96.780 12.366,96.304 12.479,96.085 12.570 C 95.032 13.008,93.049 13.497,92.843 13.369 C 92.715 13.290,92.437 13.370,92.225 13.546 C 92.012 13.723,91.838 13.774,91.838 13.661 C 91.838 13.547,91.595 13.675,91.298 13.943 C 90.654 14.526,87.117 15.727,86.737 15.492 C 86.590 15.401,86.384 15.466,86.279 15.635 C 86.144 15.855,85.565 15.709,84.271 15.128 C 83.271 14.680,82.289 14.376,82.088 14.453 C 81.887 14.530,81.162 14.309,80.477 13.963 C 78.289 12.856,73.222 10.850,72.903 10.964 C 72.733 11.024,72.000 10.842,71.274 10.560 C 70.492 10.256,69.917 10.155,69.865 10.312 C 69.811 10.473,69.392 10.415,68.797 10.164 C 67.325 9.545,66.323 9.286,66.500 9.572 C 66.706 9.906,66.583 9.888,65.473 9.425 C 64.952 9.207,64.250 9.031,63.915 9.033 C 63.330 9.038,61.703 8.877,59.721 8.619 C 59.210 8.552,58.234 8.454,57.552 8.401 C 56.870 8.348,55.878 8.049,55.347 7.736 C 54.218 7.069,54.119 7.049,54.299 7.519 C 54.484 8.000,49.833 7.837,48.338 7.310 C 47.724 7.093,47.196 7.033,47.111 7.171 C 47.022 7.315,46.699 7.312,46.310 7.164 C 45.952 7.028,45.499 6.977,45.304 7.052 C 45.108 7.127,44.630 7.067,44.240 6.919 C 43.691 6.710,43.530 6.729,43.530 7.003 C 43.530 7.261,43.224 7.325,42.402 7.240 C 40.156 7.006,38.120 7.072,38.017 7.381 C 37.947 7.591,37.590 7.521,36.885 7.162 C 35.709 6.562,35.460 6.512,35.718 6.930 C 35.938 7.287,34.835 6.990,34.257 6.537 C 33.949 6.296,33.909 6.328,34.049 6.702 C 34.249 7.236,34.137 7.272,33.443 6.900 C 33.169 6.754,32.888 6.727,32.818 6.840 C 32.749 6.953,32.234 7.007,31.674 6.960 C 29.735 6.797,28.815 6.853,28.719 7.140 C 28.656 7.329,28.465 7.343,28.162 7.181 C 27.908 7.045,27.351 6.930,26.923 6.924 C 26.495 6.919,25.648 6.882,25.042 6.842 C 24.435 6.801,23.982 6.839,24.036 6.925 C 24.171 7.143,20.141 7.011,19.391 6.773 C 18.958 6.636,18.835 6.669,18.969 6.886 C 19.092 7.085,18.826 7.055,18.221 6.802 C 17.656 6.566,17.249 6.514,17.196 6.672 C 17.139 6.844,16.865 6.841,16.403 6.666 C 15.986 6.507,15.380 6.488,14.926 6.618 C 14.496 6.741,13.968 6.734,13.731 6.601 C 13.468 6.454,13.243 6.467,13.138 6.637 C 13.045 6.787,12.842 6.831,12.686 6.735 C 12.248 6.464,8.481 6.400,8.645 6.666 C 8.843 6.986,8.712 6.965,7.597 6.499 C 7.005 6.252,6.636 6.205,6.636 6.376 C 6.636 6.569,6.478 6.570,6.121 6.379 C 5.819 6.218,5.544 6.203,5.457 6.345 M125.127 26.382 C 125.354 26.295,125.905 26.350,126.349 26.505 C 126.945 26.713,127.109 26.708,126.973 26.487 C 126.845 26.281,126.946 26.252,127.296 26.395 C 127.575 26.509,128.236 26.632,128.764 26.668 C 129.293 26.705,129.860 26.817,130.025 26.919 C 130.190 27.022,130.325 26.985,130.325 26.838 C 130.325 26.660,130.591 26.663,131.116 26.846 C 131.551 26.998,132.058 27.067,132.244 26.999 C 132.429 26.932,132.993 27.045,133.496 27.249 C 133.999 27.454,134.574 27.559,134.774 27.482 C 134.973 27.405,135.480 27.520,135.899 27.737 C 136.319 27.954,136.837 28.064,137.051 27.982 C 137.265 27.900,137.923 28.079,138.512 28.380 C 139.102 28.681,139.750 28.863,139.951 28.786 C 140.153 28.709,140.896 28.893,141.603 29.196 C 142.437 29.553,142.979 29.656,143.146 29.488 C 143.314 29.320,144.319 29.688,146.009 30.536 C 147.757 31.413,148.674 31.745,148.797 31.546 C 148.919 31.349,149.125 31.435,149.408 31.802 C 149.642 32.107,151.626 33.279,153.816 34.407 C 156.005 35.535,158.114 36.795,158.501 37.207 C 158.888 37.619,159.389 37.956,159.614 37.956 C 159.839 37.956,160.179 38.173,160.370 38.438 C 160.561 38.703,161.463 39.328,162.375 39.826 C 163.665 40.531,164.098 40.927,164.322 41.605 C 164.481 42.089,164.925 42.645,165.317 42.852 C 165.707 43.059,166.264 43.598,166.556 44.050 C 166.848 44.503,167.482 45.109,167.965 45.397 C 168.448 45.684,168.770 46.039,168.679 46.185 C 168.589 46.331,168.656 46.450,168.828 46.450 C 169.336 46.450,171.017 48.346,171.732 49.726 C 172.097 50.431,172.664 51.302,172.993 51.662 C 173.321 52.022,173.590 52.444,173.590 52.600 C 173.590 52.867,174.584 54.161,175.697 55.342 C 175.972 55.634,176.381 56.322,176.607 56.872 C 176.832 57.421,177.205 57.943,177.435 58.031 C 177.694 58.131,177.795 58.374,177.701 58.670 C 177.612 58.949,177.751 59.352,178.033 59.634 C 178.486 60.089,178.843 60.754,179.396 62.177 C 180.084 63.944,180.237 64.234,180.485 64.234 C 180.634 64.234,180.756 64.494,180.756 64.812 C 180.756 65.381,181.328 67.467,182.417 70.869 C 182.720 71.818,183.013 73.132,183.066 73.789 C 183.195 75.372,183.311 76.281,183.404 76.443 C 183.489 76.592,183.565 77.194,183.788 79.486 C 183.873 80.357,184.001 81.256,184.073 81.483 C 184.146 81.711,184.096 82.274,183.964 82.735 C 183.827 83.214,183.821 84.003,183.950 84.578 C 184.091 85.201,184.077 85.703,183.912 85.901 C 183.767 86.076,183.605 87.036,183.552 88.034 C 183.500 89.031,183.393 90.027,183.315 90.246 C 183.237 90.464,183.115 91.301,183.045 92.104 C 182.803 94.879,182.142 97.119,180.791 99.744 C 180.469 100.369,180.277 100.997,180.365 101.138 C 180.501 101.359,179.498 103.324,176.913 107.896 C 176.583 108.480,175.773 109.914,175.113 111.082 C 174.038 112.984,173.542 113.647,171.584 115.792 C 171.283 116.121,170.766 116.838,170.434 117.386 C 170.102 117.933,169.669 118.381,169.472 118.381 C 169.275 118.381,169.033 118.634,168.935 118.944 C 168.693 119.705,166.596 121.702,163.968 123.671 C 163.129 124.300,162.442 124.920,162.442 125.048 C 162.442 125.177,162.312 125.282,162.153 125.282 C 161.994 125.282,161.515 125.610,161.090 126.012 C 160.665 126.413,160.248 126.704,160.165 126.658 C 160.081 126.612,159.801 126.819,159.542 127.118 C 159.282 127.417,159.010 127.601,158.936 127.527 C 158.862 127.453,158.651 127.575,158.466 127.797 C 158.281 128.020,157.966 128.202,157.764 128.202 C 157.563 128.202,157.399 128.341,157.399 128.511 C 157.399 128.682,157.323 128.745,157.230 128.652 C 157.137 128.559,156.689 128.748,156.234 129.072 C 155.780 129.396,155.348 129.671,155.275 129.683 C 154.787 129.767,153.683 130.349,153.683 130.524 C 153.683 130.798,151.797 131.809,151.474 131.708 C 151.339 131.665,151.033 131.800,150.796 132.007 C 150.559 132.214,149.887 132.542,149.303 132.736 C 148.719 132.929,148.128 133.183,147.989 133.299 C 147.851 133.415,147.510 133.510,147.232 133.510 C 146.954 133.510,146.151 133.799,145.449 134.152 C 144.746 134.505,144.111 134.733,144.038 134.659 C 143.964 134.586,143.542 134.793,143.100 135.120 C 142.626 135.470,141.827 135.743,141.155 135.785 C 140.527 135.825,139.476 136.001,138.819 136.178 C 138.162 136.354,137.386 136.488,137.095 136.476 C 136.803 136.463,136.048 136.629,135.416 136.843 C 134.784 137.058,134.143 137.157,133.992 137.063 C 133.840 136.969,133.621 137.048,133.504 137.237 C 133.387 137.426,132.833 137.623,132.273 137.675 C 131.248 137.770,130.998 137.771,128.932 137.692 C 127.185 137.625,124.486 137.860,124.486 138.078 C 124.486 138.186,124.217 138.177,123.889 138.057 C 123.560 137.938,122.694 137.882,121.964 137.934 C 119.870 138.083,118.104 137.945,117.526 137.588 C 117.339 137.472,116.231 137.366,115.063 137.350 C 113.799 137.334,112.368 137.131,111.528 136.849 C 110.751 136.588,109.755 136.428,109.313 136.493 C 108.789 136.570,108.462 136.484,108.371 136.245 C 108.293 136.044,107.895 135.706,107.486 135.495 L 106.742 135.110 107.319 134.047 C 107.637 133.462,108.033 132.983,108.200 132.982 C 108.367 132.980,108.572 132.800,108.656 132.581 C 108.740 132.362,108.962 132.179,109.149 132.174 C 109.336 132.168,109.728 131.661,110.020 131.045 C 110.312 130.430,110.819 129.809,111.148 129.665 C 111.476 129.521,111.953 128.900,112.207 128.284 C 112.503 127.569,112.883 127.112,113.260 127.017 C 113.676 126.913,113.800 126.740,113.681 126.430 C 113.564 126.125,113.613 126.053,113.841 126.194 C 114.047 126.321,114.143 126.263,114.100 126.039 C 113.982 125.433,114.408 124.506,114.745 124.635 C 114.931 124.706,115.508 123.924,116.125 122.766 C 116.709 121.670,117.332 120.773,117.511 120.772 C 117.816 120.770,119.170 118.330,119.576 117.051 C 119.678 116.730,120.048 116.045,120.399 115.528 C 120.750 115.011,121.175 114.128,121.343 113.565 C 121.512 113.002,121.734 112.541,121.837 112.541 C 122.106 112.541,123.424 109.521,123.424 108.905 C 123.424 108.621,123.902 107.465,124.486 106.336 C 125.070 105.208,125.548 104.082,125.549 103.834 C 125.549 103.587,125.849 102.794,126.215 102.073 C 126.652 101.211,126.790 100.672,126.618 100.500 C 126.446 100.328,126.454 100.121,126.641 99.895 C 126.798 99.706,126.964 99.144,127.010 98.646 C 127.056 98.147,127.261 97.397,127.465 96.979 C 127.669 96.560,127.808 95.681,127.774 95.025 C 127.741 94.369,127.825 93.697,127.962 93.532 C 128.099 93.367,128.136 93.037,128.044 92.797 C 127.952 92.558,128.037 92.170,128.232 91.935 C 128.620 91.467,128.849 89.433,128.728 87.525 C 128.707 87.196,128.809 85.913,128.955 84.673 C 129.134 83.140,129.132 82.365,128.946 82.251 C 128.797 82.158,128.718 81.531,128.771 80.856 C 128.825 80.182,128.775 79.598,128.659 79.560 C 128.385 79.468,128.246 75.916,128.510 75.753 C 128.621 75.684,128.594 75.318,128.450 74.939 C 128.306 74.560,128.259 74.028,128.345 73.756 C 128.431 73.485,128.405 73.113,128.287 72.929 C 127.740 72.073,127.477 70.733,127.557 69.200 C 127.625 67.915,127.532 67.352,127.158 66.783 C 126.891 66.375,126.728 65.826,126.797 65.562 C 126.866 65.298,126.674 64.520,126.370 63.833 C 126.066 63.146,125.882 62.478,125.962 62.350 C 126.041 62.221,125.930 61.727,125.714 61.250 C 125.498 60.774,125.242 59.989,125.144 59.504 C 125.046 59.020,124.806 58.562,124.610 58.487 C 124.413 58.411,124.179 57.972,124.088 57.509 C 123.998 57.047,123.820 56.430,123.692 56.138 C 123.564 55.846,123.275 55.189,123.049 54.678 C 122.823 54.167,122.400 53.054,122.110 52.204 C 121.819 51.355,121.280 50.300,120.910 49.861 C 120.541 49.423,120.239 48.834,120.239 48.553 C 120.239 48.272,120.012 47.815,119.734 47.538 C 119.457 47.260,119.141 46.753,119.033 46.410 C 118.924 46.067,118.614 45.630,118.343 45.439 C 118.072 45.249,117.850 44.929,117.850 44.730 C 117.850 44.530,117.440 43.830,116.938 43.173 C 116.437 42.516,115.838 41.612,115.606 41.165 C 115.374 40.717,114.644 39.742,113.983 38.998 C 113.323 38.254,112.340 36.979,111.799 36.164 C 111.258 35.350,109.951 33.802,108.893 32.723 C 107.836 31.645,106.896 30.440,106.805 30.046 C 106.713 29.652,106.444 29.164,106.206 28.962 C 105.808 28.625,105.810 28.608,106.229 28.752 C 106.480 28.838,106.761 28.786,106.853 28.637 C 106.946 28.487,107.214 28.439,107.451 28.529 C 107.687 28.620,107.800 28.614,107.702 28.516 C 107.310 28.124,108.264 27.569,108.819 27.867 C 109.213 28.077,109.356 28.073,109.356 27.851 C 109.356 27.684,109.528 27.614,109.737 27.694 C 109.947 27.774,110.162 27.710,110.215 27.552 C 110.282 27.350,110.498 27.363,110.927 27.593 C 111.295 27.790,111.473 27.809,111.368 27.639 C 111.250 27.448,111.629 27.386,112.533 27.451 C 113.270 27.503,113.944 27.432,114.030 27.292 C 114.117 27.152,114.355 27.102,114.559 27.180 C 114.763 27.258,114.930 27.194,114.930 27.037 C 114.930 26.880,115.106 26.819,115.320 26.901 C 115.534 26.983,115.766 26.959,115.835 26.848 C 115.904 26.736,116.500 26.664,117.161 26.686 C 117.915 26.711,118.300 26.626,118.195 26.457 C 118.088 26.284,118.211 26.265,118.536 26.403 C 118.816 26.522,119.224 26.606,119.443 26.589 C 119.662 26.573,120.637 26.526,121.610 26.485 C 122.584 26.444,123.465 26.325,123.570 26.220 C 123.674 26.116,123.974 26.145,124.236 26.286 C 124.498 26.426,124.899 26.469,125.127 26.382 M87.445 39.111 C 89.388 40.031,89.949 40.426,90.212 41.059 C 90.403 41.522,90.922 42.036,91.455 42.289 C 91.958 42.529,92.369 42.844,92.369 42.988 C 92.369 43.133,92.727 43.436,93.165 43.663 C 93.603 43.889,93.962 44.251,93.962 44.466 C 93.962 44.681,94.152 44.857,94.385 44.857 C 94.617 44.857,94.868 45.089,94.942 45.371 C 95.016 45.654,95.432 46.010,95.866 46.161 C 96.300 46.312,96.593 46.538,96.515 46.663 C 96.438 46.788,96.728 47.276,97.159 47.748 C 97.590 48.220,97.945 48.688,97.947 48.789 C 97.950 48.889,98.307 49.375,98.743 49.869 C 99.178 50.363,99.653 51.209,99.799 51.750 C 99.971 52.389,100.296 52.840,100.729 53.037 C 101.107 53.209,101.393 53.562,101.393 53.857 C 101.393 54.142,101.567 54.548,101.779 54.760 C 101.990 54.972,102.241 55.452,102.335 55.827 C 102.429 56.201,102.782 56.689,103.120 56.911 C 103.458 57.132,103.883 57.761,104.063 58.308 C 104.244 58.855,104.672 59.862,105.016 60.546 C 105.359 61.230,105.640 61.981,105.640 62.216 C 105.640 62.451,105.879 63.089,106.171 63.633 C 106.463 64.178,106.702 64.828,106.702 65.077 C 106.702 65.326,106.830 65.608,106.986 65.705 C 107.142 65.801,107.198 66.064,107.112 66.290 C 107.025 66.515,107.148 66.913,107.385 67.175 C 107.622 67.437,107.737 67.779,107.640 67.935 C 107.543 68.092,107.712 68.536,108.015 68.921 C 108.361 69.361,108.557 69.979,108.539 70.578 C 108.497 72.034,108.792 73.870,109.098 74.059 C 109.261 74.160,109.322 74.897,109.249 75.882 C 109.173 76.892,109.262 77.924,109.477 78.534 C 109.700 79.164,109.742 79.689,109.592 79.957 C 109.461 80.191,109.447 80.661,109.561 81.001 C 109.675 81.341,109.740 81.918,109.704 82.283 C 109.588 83.471,109.371 85.829,109.216 87.580 C 109.133 88.522,108.941 89.443,108.788 89.627 C 108.596 89.858,108.605 90.241,108.818 90.886 C 109.036 91.547,109.043 91.963,108.842 92.338 C 108.687 92.628,108.560 93.116,108.560 93.424 C 108.560 93.731,108.327 94.439,108.043 94.996 C 107.758 95.554,107.543 96.244,107.565 96.531 C 107.586 96.817,107.381 97.520,107.109 98.094 C 106.837 98.667,106.588 99.383,106.555 99.683 C 106.437 100.753,102.205 108.966,101.159 110.153 C 100.709 110.664,100.338 111.221,100.336 111.391 C 100.334 111.562,100.242 111.741,100.133 111.789 C 100.023 111.838,99.728 112.323,99.476 112.868 C 99.157 113.558,98.896 113.810,98.613 113.702 C 98.357 113.603,98.208 113.698,98.208 113.960 C 98.208 114.578,97.630 115.729,97.394 115.582 C 97.280 115.512,96.920 115.845,96.593 116.321 C 96.266 116.797,95.480 117.675,94.847 118.272 C 94.214 118.870,93.696 119.477,93.696 119.623 C 93.696 119.769,93.397 120.024,93.033 120.191 C 92.668 120.357,92.369 120.622,92.369 120.779 C 92.369 121.100,90.777 122.628,90.443 122.628 C 90.324 122.628,89.877 122.986,89.449 123.424 C 89.021 123.862,88.553 124.220,88.410 124.220 C 88.266 124.220,88.053 124.370,87.936 124.552 C 87.494 125.243,86.600 125.554,86.254 125.137 C 86.078 124.925,85.783 124.751,85.598 124.751 C 85.414 124.751,84.622 124.145,83.839 123.403 C 83.056 122.662,81.971 121.825,81.429 121.544 C 80.459 121.042,79.705 120.097,79.860 119.575 C 79.903 119.429,79.859 119.389,79.762 119.486 C 79.346 119.902,76.025 117.163,75.617 116.067 C 75.512 115.785,73.500 113.348,72.661 112.487 C 72.405 112.225,72.193 111.802,72.190 111.546 C 72.181 110.924,70.427 108.560,69.975 108.560 C 69.735 108.560,69.658 108.340,69.742 107.900 C 69.824 107.468,69.730 107.186,69.469 107.086 C 69.216 106.989,69.123 106.730,69.215 106.380 C 69.303 106.041,69.193 105.705,68.930 105.513 C 68.694 105.340,68.375 104.910,68.221 104.557 C 68.067 104.204,67.644 103.389,67.282 102.745 C 66.919 102.102,66.622 101.375,66.622 101.131 C 66.622 100.886,66.543 100.606,66.446 100.510 C 66.349 100.413,66.055 99.722,65.792 98.975 C 65.529 98.228,65.113 97.470,64.867 97.290 C 64.578 97.079,64.407 96.547,64.381 95.783 C 64.359 95.134,64.138 94.312,63.889 93.958 C 63.641 93.603,63.437 93.045,63.437 92.717 C 63.437 92.390,63.239 91.551,62.996 90.852 C 62.754 90.153,62.576 89.269,62.600 88.886 C 62.624 88.503,62.478 88.052,62.275 87.883 C 61.997 87.653,61.927 86.985,61.990 85.184 C 62.046 83.602,61.954 82.503,61.719 81.943 C 61.481 81.378,61.445 80.941,61.611 80.630 C 61.748 80.374,61.810 79.118,61.748 77.840 C 61.627 75.345,61.941 73.233,62.575 72.265 C 62.791 71.935,62.906 71.426,62.829 71.134 C 62.753 70.843,62.795 70.540,62.923 70.461 C 63.050 70.382,63.140 69.928,63.122 69.452 C 63.104 68.976,63.273 68.294,63.498 67.936 C 63.722 67.579,63.982 66.773,64.075 66.146 C 64.240 65.031,64.569 64.251,65.224 63.422 C 65.403 63.195,65.502 62.759,65.443 62.454 C 65.270 61.555,70.155 52.246,70.701 52.433 C 70.867 52.489,71.291 51.920,71.644 51.168 C 71.997 50.415,72.773 49.265,73.369 48.612 C 75.797 45.948,76.646 45.147,76.847 45.329 C 76.964 45.435,76.971 45.368,76.864 45.182 C 76.614 44.749,77.745 43.802,78.270 44.004 C 78.514 44.098,78.585 44.040,78.464 43.844 C 78.276 43.540,80.547 41.087,80.791 41.331 C 80.858 41.397,81.048 41.200,81.213 40.891 C 81.378 40.583,81.635 40.405,81.783 40.497 C 81.931 40.589,82.115 40.426,82.191 40.135 C 82.274 39.819,82.633 39.545,83.082 39.455 C 83.496 39.373,84.053 39.005,84.319 38.639 C 84.924 37.809,84.591 37.759,87.445 39.111 M25.358 187.673 C 25.507 187.915,25.407 187.966,24.992 187.857 C 24.677 187.775,24.419 187.828,24.419 187.976 C 24.419 188.129,24.219 188.162,23.955 188.051 C 23.235 187.750,22.031 187.715,22.031 187.994 C 22.031 188.132,21.851 188.176,21.632 188.092 C 21.413 188.008,21.234 188.068,21.234 188.225 C 21.234 188.382,21.055 188.442,20.836 188.358 C 20.617 188.274,20.438 188.334,20.438 188.491 C 20.438 188.648,20.267 188.710,20.057 188.630 C 19.847 188.549,19.633 188.614,19.580 188.772 C 19.512 188.976,19.312 188.969,18.899 188.748 C 18.551 188.562,18.315 188.541,18.315 188.696 C 18.315 189.135,17.032 190.371,16.755 190.199 C 16.612 190.111,16.416 190.288,16.319 190.593 C 16.217 190.915,15.992 191.089,15.783 191.008 C 15.579 190.930,15.352 191.089,15.262 191.374 C 15.174 191.651,14.946 191.818,14.756 191.744 C 14.549 191.665,14.272 191.941,14.072 192.426 C 13.785 193.119,13.672 193.190,13.319 192.904 C 12.994 192.641,12.947 192.640,13.103 192.900 C 13.213 193.082,13.184 193.232,13.040 193.232 C 12.895 193.232,12.702 193.464,12.612 193.749 C 12.522 194.033,12.206 194.343,11.911 194.437 C 11.615 194.530,11.437 194.671,11.514 194.748 C 11.592 194.825,11.332 195.212,10.937 195.607 C 10.542 196.002,9.934 196.933,9.587 197.676 C 9.239 198.419,8.820 198.976,8.656 198.913 C 8.492 198.850,8.239 199.024,8.094 199.299 C 6.003 203.274,5.041 205.299,5.128 205.542 C 5.186 205.706,4.827 206.654,4.330 207.649 C 3.785 208.740,3.489 209.657,3.585 209.959 C 3.673 210.235,3.549 210.758,3.310 211.123 C 3.059 211.506,2.947 212.009,3.044 212.316 C 3.139 212.616,3.013 213.227,2.753 213.723 C 2.148 214.878,1.821 216.541,1.720 218.978 C 1.674 220.073,1.554 221.178,1.453 221.434 C 1.352 221.690,1.361 222.227,1.472 222.628 C 1.583 223.029,1.648 223.621,1.616 223.943 C 1.584 224.266,1.794 225.063,2.082 225.715 C 2.370 226.367,2.551 226.956,2.483 227.024 C 2.180 227.327,3.577 229.647,4.281 230.011 C 4.700 230.228,5.043 230.556,5.043 230.741 C 5.043 231.186,8.047 232.661,8.174 232.279 C 8.237 232.091,8.561 232.143,9.112 232.429 C 9.982 232.881,13.006 233.128,13.006 232.747 C 13.006 232.628,13.185 232.600,13.404 232.684 C 13.623 232.768,13.802 232.701,13.802 232.534 C 13.802 232.317,13.948 232.309,14.312 232.503 C 14.673 232.697,14.850 232.688,14.922 232.475 C 14.994 232.256,15.197 232.267,15.660 232.515 C 16.129 232.766,16.325 232.776,16.400 232.551 C 16.456 232.384,16.611 232.314,16.745 232.396 C 16.878 232.479,16.987 232.412,16.987 232.247 C 16.987 232.069,17.202 232.016,17.520 232.117 C 17.863 232.226,18.104 232.149,18.200 231.899 C 18.282 231.686,18.873 231.312,19.514 231.067 C 20.193 230.808,20.749 230.401,20.848 230.090 C 20.948 229.772,21.168 229.615,21.391 229.700 C 21.597 229.779,21.765 229.716,21.765 229.558 C 21.765 229.401,21.938 229.339,22.150 229.421 C 22.380 229.509,22.598 229.367,22.694 229.064 C 22.784 228.780,23.011 228.621,23.215 228.699 C 23.422 228.779,23.647 228.610,23.745 228.301 C 23.850 227.973,24.065 227.822,24.300 227.912 C 24.512 227.993,24.685 227.920,24.685 227.750 C 24.685 227.580,24.804 227.514,24.950 227.605 C 25.096 227.695,25.216 227.629,25.216 227.459 C 25.216 227.289,25.389 227.216,25.600 227.297 C 25.833 227.386,26.050 227.240,26.149 226.927 C 26.239 226.643,26.414 226.410,26.536 226.410 C 26.852 226.410,29.197 224.095,29.197 223.784 C 29.197 223.642,29.430 223.452,29.714 223.362 C 29.999 223.272,30.304 222.971,30.392 222.694 C 30.479 222.417,30.767 222.122,31.031 222.038 C 31.295 221.954,31.727 221.407,31.991 220.821 C 32.255 220.235,32.755 219.450,33.102 219.076 C 33.848 218.270,37.655 210.768,37.680 210.051 C 37.704 209.398,37.897 208.016,38.201 206.329 C 38.336 205.576,38.398 203.844,38.339 202.480 C 38.279 201.116,38.229 199.678,38.229 199.285 C 38.228 198.877,37.942 198.285,37.561 197.904 C 37.194 197.537,36.894 196.941,36.894 196.579 C 36.894 196.217,36.756 195.584,36.586 195.173 C 36.417 194.762,36.297 194.336,36.321 194.227 C 36.344 194.117,36.184 194.028,35.965 194.028 C 35.747 194.028,35.567 193.863,35.567 193.661 C 35.567 193.459,34.851 192.569,33.975 191.682 C 33.099 190.795,32.382 189.971,32.382 189.852 C 32.382 189.732,31.358 189.126,30.105 188.505 C 28.853 187.884,27.904 187.499,27.997 187.649 C 28.208 187.989,27.608 188.001,27.081 187.668 C 26.831 187.509,26.627 187.521,26.517 187.699 C 26.399 187.890,26.158 187.878,25.748 187.659 C 25.273 187.404,25.194 187.407,25.358 187.673 M27.462 194.278 C 27.377 194.140,27.422 194.028,27.562 194.028 C 27.922 194.028,29.462 195.419,29.464 195.746 C 29.465 195.896,29.831 196.226,30.278 196.481 C 30.724 196.735,31.021 197.053,30.938 197.188 C 30.855 197.323,30.880 197.473,30.994 197.522 C 31.356 197.677,32.086 199.855,31.829 200.014 C 31.490 200.223,31.525 201.382,31.892 202.067 C 32.061 202.382,32.198 203.064,32.198 203.583 C 32.198 204.102,32.061 204.785,31.892 205.100 C 31.724 205.414,31.586 205.903,31.586 206.186 C 31.586 206.469,31.340 207.257,31.039 207.936 C 30.739 208.616,30.564 209.395,30.650 209.667 C 30.738 209.944,30.634 210.337,30.413 210.558 C 30.196 210.775,30.093 211.026,30.183 211.116 C 30.273 211.207,30.201 211.281,30.022 211.281 C 29.843 211.281,29.751 211.370,29.817 211.480 C 29.883 211.589,29.359 212.814,28.652 214.200 C 27.945 215.587,27.360 216.624,27.353 216.504 C 27.331 216.152,26.648 216.942,26.161 217.885 C 25.864 218.460,25.577 218.704,25.317 218.605 C 25.095 218.519,24.993 218.568,25.085 218.716 C 25.174 218.860,25.101 218.978,24.922 218.978 C 24.743 218.978,24.669 219.051,24.757 219.139 C 25.012 219.394,24.326 219.987,23.945 219.841 C 23.756 219.769,23.630 219.813,23.665 219.941 C 23.802 220.442,23.295 221.400,22.960 221.271 C 22.752 221.191,22.479 221.457,22.283 221.930 C 22.074 222.434,21.819 222.670,21.581 222.578 C 21.346 222.488,21.277 222.548,21.395 222.739 C 21.522 222.945,21.401 222.996,21.020 222.896 C 20.623 222.792,20.411 222.893,20.301 223.239 C 20.214 223.512,19.986 223.668,19.785 223.590 C 19.577 223.511,19.352 223.680,19.254 223.988 C 19.159 224.288,18.929 224.466,18.733 224.391 C 18.541 224.317,18.307 224.455,18.214 224.697 C 18.116 224.952,17.878 225.074,17.649 224.986 C 17.431 224.903,17.253 224.948,17.253 225.086 C 17.253 225.225,16.954 225.413,16.589 225.505 C 16.224 225.596,15.926 225.774,15.926 225.900 C 15.926 226.025,15.747 226.059,15.528 225.975 C 15.309 225.891,15.129 225.930,15.129 226.062 C 15.129 226.194,14.801 226.293,14.399 226.282 C 13.998 226.272,13.596 226.366,13.506 226.493 C 13.417 226.620,12.825 226.458,12.191 226.135 C 11.471 225.768,11.002 225.654,10.942 225.833 C 10.815 226.215,8.494 225.089,8.494 224.645 C 8.494 224.462,8.307 224.209,8.079 224.081 C 7.628 223.829,7.503 222.663,7.820 221.664 C 7.930 221.318,7.917 221.098,7.792 221.176 C 7.667 221.253,7.546 220.999,7.523 220.612 C 7.500 220.224,7.433 219.429,7.374 218.845 C 7.313 218.240,7.416 217.546,7.615 217.232 C 7.807 216.928,7.954 216.391,7.940 216.037 C 7.927 215.684,7.997 215.096,8.095 214.731 C 8.215 214.287,8.192 214.183,8.026 214.417 C 7.007 215.848,8.076 212.112,9.411 209.577 C 11.313 205.963,12.271 204.039,12.895 202.580 C 13.165 201.948,13.519 201.498,13.693 201.565 C 13.865 201.631,14.213 201.225,14.466 200.664 C 14.744 200.047,15.062 199.695,15.269 199.774 C 15.458 199.846,15.688 199.668,15.780 199.378 C 16.032 198.584,16.996 197.453,17.274 197.624 C 17.408 197.707,17.518 197.666,17.518 197.533 C 17.518 197.163,18.853 195.805,19.036 195.988 C 19.125 196.077,19.419 195.786,19.689 195.341 C 19.959 194.896,20.298 194.605,20.442 194.694 C 20.586 194.783,20.703 194.716,20.703 194.546 C 20.703 194.376,20.883 194.305,21.102 194.389 C 21.321 194.473,21.500 194.422,21.500 194.276 C 21.500 194.103,21.687 194.109,22.031 194.293 C 22.412 194.498,22.561 194.495,22.561 194.285 C 22.561 194.113,22.780 194.062,23.092 194.161 C 23.409 194.261,23.623 194.208,23.623 194.030 C 23.623 193.866,23.743 193.805,23.889 193.895 C 24.035 193.985,24.154 193.920,24.154 193.750 C 24.154 193.579,24.329 193.508,24.544 193.590 C 24.758 193.672,25.007 193.620,25.097 193.475 C 25.194 193.317,25.731 193.474,26.438 193.870 C 27.087 194.232,27.547 194.416,27.462 194.278 M309.101 194.791 C 309.008 195.086,308.786 195.272,308.609 195.204 C 308.432 195.136,308.059 195.506,307.779 196.024 C 307.500 196.543,307.124 196.912,306.945 196.843 C 306.766 196.774,306.477 197.060,306.304 197.478 C 306.105 197.959,305.851 198.186,305.616 198.096 C 305.410 198.017,305.242 198.087,305.242 198.252 C 305.242 198.416,304.942 199.026,304.575 199.607 C 304.209 200.188,303.988 200.664,304.086 200.664 C 304.183 200.664,304.047 200.902,303.782 201.194 C 303.518 201.486,303.384 201.725,303.485 201.725 C 303.586 201.725,302.577 203.845,301.243 206.437 C 299.908 209.028,298.780 211.525,298.734 211.987 C 298.688 212.448,298.515 213.080,298.348 213.391 C 298.182 213.701,298.077 214.160,298.115 214.410 C 298.153 214.660,298.042 215.123,297.867 215.440 C 297.573 215.973,297.485 217.182,297.511 220.365 C 297.516 221.055,297.666 222.130,297.842 222.754 C 298.019 223.378,298.135 224.158,298.101 224.487 C 298.066 224.816,298.205 225.149,298.409 225.228 C 298.614 225.306,298.944 225.784,299.142 226.288 C 299.340 226.793,299.599 227.206,299.718 227.206 C 299.836 227.206,299.934 227.384,299.934 227.601 C 299.934 227.818,300.650 228.357,301.526 228.799 C 302.402 229.241,303.119 229.469,303.119 229.305 C 303.119 229.142,303.294 229.075,303.508 229.157 C 303.723 229.239,303.969 229.192,304.055 229.052 C 304.155 228.892,304.403 228.899,304.727 229.073 C 305.097 229.271,305.242 229.263,305.242 229.045 C 305.242 228.879,305.411 228.807,305.618 228.886 C 305.825 228.966,306.060 228.859,306.141 228.649 C 306.221 228.440,306.470 228.268,306.694 228.268 C 306.917 228.268,307.100 228.144,307.100 227.993 C 307.100 227.813,307.293 227.822,307.665 228.021 C 308.105 228.256,308.279 228.244,308.457 227.964 C 308.582 227.766,308.686 227.712,308.689 227.842 C 308.691 227.973,308.992 227.757,309.358 227.363 C 309.723 226.968,310.124 226.708,310.248 226.785 C 310.372 226.862,310.607 226.629,310.772 226.269 C 310.936 225.909,311.201 225.614,311.360 225.614 C 311.520 225.614,311.817 225.464,312.020 225.282 C 313.195 224.229,313.196 224.229,313.472 224.938 C 313.617 225.310,313.852 225.912,313.995 226.277 C 314.137 226.642,314.362 226.941,314.495 226.941 C 314.627 226.941,314.794 227.164,314.865 227.437 C 315.028 228.059,318.299 229.665,318.560 229.250 C 318.684 229.052,318.857 229.064,319.129 229.290 C 319.449 229.555,319.512 229.528,319.481 229.140 C 319.452 228.780,319.618 228.678,320.173 228.716 C 320.574 228.744,320.902 228.658,320.902 228.525 C 320.902 228.393,321.082 228.353,321.301 228.438 C 321.520 228.522,321.699 228.451,321.699 228.281 C 321.699 228.111,321.818 228.045,321.964 228.135 C 322.110 228.226,322.230 228.165,322.230 228.000 C 322.230 227.822,322.444 227.770,322.760 227.870 C 323.067 227.967,323.291 227.918,323.291 227.753 C 323.291 227.596,324.719 228.184,326.465 229.058 C 328.268 229.962,329.817 230.581,330.051 230.491 C 330.279 230.403,330.642 230.480,330.859 230.660 C 331.171 230.918,331.254 230.919,331.254 230.661 C 331.254 230.480,331.431 230.403,331.652 230.487 C 331.871 230.572,332.050 230.512,332.050 230.355 C 332.050 230.198,332.230 230.138,332.449 230.222 C 332.668 230.306,332.847 230.246,332.847 230.089 C 332.847 229.932,333.026 229.873,333.245 229.957 C 333.464 230.041,333.643 229.981,333.643 229.824 C 333.643 229.667,333.822 229.607,334.041 229.691 C 334.260 229.775,334.439 229.708,334.439 229.543 C 334.439 229.377,334.517 229.319,334.611 229.413 C 334.800 229.602,335.766 228.597,335.766 228.212 C 335.766 228.080,335.894 228.050,336.050 228.146 C 336.205 228.243,336.497 228.100,336.697 227.830 C 337.005 227.415,337.145 227.390,337.605 227.671 C 338.261 228.071,338.509 228.095,338.288 227.737 C 338.027 227.315,338.315 227.412,340.311 228.417 C 341.343 228.937,342.110 229.236,342.014 229.081 C 341.792 228.721,342.285 228.718,342.950 229.074 C 343.319 229.271,343.464 229.263,343.464 229.045 C 343.464 228.879,343.643 228.811,343.862 228.895 C 344.081 228.979,344.260 228.924,344.260 228.773 C 344.260 228.619,344.493 228.572,344.791 228.666 C 345.107 228.767,345.322 228.714,345.322 228.536 C 345.322 228.371,345.429 228.303,345.559 228.384 C 345.690 228.464,345.866 228.352,345.949 228.134 C 346.033 227.916,346.227 227.737,346.380 227.737 C 346.533 227.737,347.056 227.327,347.543 226.827 L 348.427 225.916 349.263 226.425 C 349.723 226.704,350.100 227.044,350.100 227.180 C 350.100 227.315,350.640 227.728,351.300 228.098 C 351.961 228.467,352.436 228.664,352.358 228.537 C 352.058 228.052,352.692 228.050,353.485 228.533 C 354.009 228.851,354.347 228.930,354.408 228.746 C 354.475 228.546,354.701 228.562,355.143 228.799 C 355.612 229.050,355.808 229.060,355.883 228.835 C 355.939 228.668,356.090 228.595,356.218 228.675 C 356.347 228.754,356.601 228.582,356.782 228.292 C 357.035 227.887,357.195 227.834,357.469 228.061 C 357.741 228.287,357.807 228.271,357.746 227.994 C 357.698 227.782,357.887 227.624,358.195 227.617 C 358.503 227.610,358.693 227.451,358.648 227.239 C 358.595 226.989,358.743 226.918,359.113 227.015 C 359.595 227.141,359.681 227.064,359.645 226.533 C 359.574 225.457,360.518 225.627,363.745 227.270 C 365.563 228.196,366.981 228.842,366.896 228.705 C 366.805 228.558,367.031 228.529,367.445 228.633 C 367.873 228.740,368.149 228.699,368.149 228.529 C 368.149 228.336,368.306 228.333,368.658 228.522 C 369.019 228.715,369.197 228.707,369.268 228.493 C 369.341 228.274,369.514 228.270,369.906 228.480 C 370.339 228.711,370.513 228.670,370.804 228.266 C 371.003 227.991,371.263 227.826,371.382 227.900 C 371.502 227.974,371.599 227.900,371.599 227.737 C 371.599 227.574,371.727 227.519,371.882 227.615 C 372.038 227.712,372.319 227.580,372.507 227.323 C 372.696 227.065,373.027 226.923,373.245 227.006 C 373.465 227.091,373.797 226.940,373.994 226.667 C 374.262 226.295,374.465 226.239,374.831 226.435 C 375.120 226.590,375.315 226.595,375.315 226.448 C 375.315 225.785,376.354 225.996,378.569 227.108 C 380.018 227.836,381.041 228.212,381.099 228.037 C 381.164 227.841,381.469 227.886,382.026 228.174 C 382.568 228.455,382.890 228.505,382.952 228.318 C 383.004 228.161,383.218 228.098,383.428 228.179 C 383.637 228.259,383.809 228.206,383.809 228.061 C 383.809 227.915,384.018 227.813,384.273 227.833 C 384.540 227.854,384.705 227.715,384.660 227.504 C 384.606 227.250,384.756 227.184,385.151 227.287 C 385.464 227.369,385.655 227.371,385.576 227.293 C 385.322 227.039,386.050 226.472,386.439 226.621 C 386.679 226.713,386.746 226.653,386.624 226.455 C 386.518 226.284,386.544 226.145,386.681 226.145 C 387.080 226.145,387.589 224.643,387.397 224.035 C 387.124 223.176,387.060 221.102,387.305 221.102 C 387.710 221.102,387.530 219.853,387.034 219.213 C 386.763 218.865,386.592 218.436,386.654 218.260 C 386.756 217.966,386.020 216.099,385.680 215.793 C 385.334 215.480,384.912 214.291,384.974 213.802 C 385.092 212.882,385.432 212.064,385.643 212.195 C 385.754 212.264,386.186 211.608,386.601 210.739 C 387.017 209.869,387.463 209.157,387.592 209.157 C 387.721 209.157,387.789 208.889,387.742 208.560 C 387.653 207.931,384.028 205.765,383.858 206.240 C 383.812 206.368,383.607 206.409,383.401 206.330 C 383.161 206.238,382.867 206.526,382.573 207.141 C 382.323 207.666,381.962 208.096,381.772 208.096 C 381.069 208.096,379.507 211.759,379.706 212.939 C 379.805 213.527,379.886 214.780,379.886 215.723 C 379.886 217.372,379.919 217.458,380.737 217.940 C 381.649 218.478,382.653 220.877,382.324 221.734 C 382.118 222.271,382.146 222.274,380.851 221.613 C 380.257 221.310,379.851 221.191,379.948 221.347 C 380.045 221.504,379.955 221.632,379.747 221.632 C 379.499 221.632,379.409 221.428,379.484 221.035 C 379.582 220.524,379.345 220.312,377.855 219.577 C 376.896 219.105,376.111 218.832,376.111 218.972 C 376.111 219.112,375.932 219.158,375.713 219.074 C 375.494 218.990,375.315 219.061,375.315 219.231 C 375.315 219.401,375.204 219.472,375.068 219.388 C 374.932 219.304,374.749 219.351,374.661 219.493 C 374.574 219.635,374.337 219.688,374.136 219.611 C 373.923 219.529,373.700 219.694,373.600 220.007 C 373.505 220.307,373.276 220.484,373.080 220.409 C 372.887 220.335,372.556 220.448,372.345 220.659 C 372.057 220.947,371.835 220.973,371.462 220.765 C 371.102 220.563,370.935 220.572,370.861 220.795 C 370.804 220.966,370.648 221.037,370.515 220.955 C 370.381 220.872,370.272 220.931,370.272 221.086 C 370.272 221.240,370.157 221.367,370.016 221.367 C 369.875 221.367,370.001 220.957,370.297 220.456 C 370.592 219.955,370.813 219.387,370.787 219.195 C 370.690 218.478,370.817 218.213,371.334 218.049 C 371.707 217.931,371.865 217.648,371.865 217.093 C 371.865 216.660,372.173 215.698,372.549 214.956 C 373.272 213.528,373.264 213.125,372.469 211.290 C 372.027 210.270,369.005 208.394,368.403 208.766 C 368.269 208.849,367.942 208.800,367.675 208.657 C 367.303 208.458,367.117 208.518,366.868 208.917 C 366.612 209.326,366.437 209.378,366.037 209.164 C 365.629 208.945,365.498 208.993,365.366 209.409 C 365.276 209.694,364.969 210.000,364.684 210.091 C 364.400 210.181,364.167 210.373,364.167 210.518 C 364.167 210.663,364.062 210.716,363.933 210.636 C 363.804 210.556,363.548 210.854,363.364 211.298 C 363.180 211.742,362.885 212.049,362.707 211.981 C 362.518 211.908,362.080 212.494,361.646 213.404 C 361.190 214.358,360.777 214.901,360.570 214.822 C 360.195 214.678,359.793 215.637,360.052 216.056 C 360.272 216.413,359.911 216.380,359.257 215.983 C 358.502 215.524,358.425 212.767,359.173 212.963 C 359.475 213.042,359.655 212.945,359.655 212.705 C 359.655 212.228,360.695 210.146,361.046 209.920 C 361.766 209.458,360.827 208.554,358.324 207.297 C 355.902 206.082,355.694 206.022,355.543 206.495 C 355.454 206.777,355.234 206.950,355.055 206.882 C 354.667 206.733,351.692 212.243,351.692 213.110 C 351.692 213.427,351.845 213.745,352.032 213.817 C 352.252 213.901,352.348 214.356,352.304 215.108 C 352.261 215.841,352.370 216.381,352.600 216.572 C 352.801 216.738,352.906 217.099,352.834 217.373 C 352.748 217.704,352.927 218.018,353.367 218.306 C 354.290 218.911,354.928 221.632,354.147 221.632 C 353.965 221.632,353.816 221.756,353.816 221.907 C 353.816 222.096,353.656 222.096,353.306 221.909 C 352.946 221.717,352.767 221.724,352.697 221.935 C 352.630 222.138,352.316 222.088,351.718 221.778 C 351.233 221.528,350.917 221.452,351.015 221.610 C 351.240 221.975,350.751 221.981,350.082 221.623 C 349.699 221.418,349.567 221.435,349.560 221.689 C 349.545 222.293,348.772 221.031,348.772 220.403 C 348.772 220.074,348.674 219.745,348.553 219.670 C 348.432 219.595,348.115 218.812,347.847 217.929 C 347.580 217.046,347.291 216.324,347.204 216.324 C 347.118 216.324,347.024 216.055,346.997 215.727 C 346.969 215.398,346.900 214.566,346.843 213.876 C 346.733 212.525,346.945 211.900,347.416 212.191 C 347.578 212.292,347.711 212.234,347.711 212.064 C 347.711 211.894,347.873 211.817,348.071 211.893 C 349.034 212.263,349.632 209.296,348.681 208.862 C 348.220 208.652,348.090 208.418,348.178 207.957 C 348.280 207.420,348.072 207.221,346.650 206.504 C 345.745 206.047,345.094 205.819,345.204 205.997 C 345.344 206.223,345.249 206.280,344.891 206.187 C 344.608 206.113,344.219 206.222,344.026 206.428 C 343.833 206.635,343.502 206.738,343.290 206.657 C 343.075 206.574,342.977 206.625,343.068 206.771 C 343.157 206.916,343.044 207.034,342.816 207.034 C 342.588 207.034,342.402 207.150,342.402 207.291 C 342.402 207.432,342.253 207.493,342.070 207.425 C 340.850 206.972,339.239 213.714,340.403 214.403 C 340.839 214.660,341.463 216.555,341.370 217.340 C 341.330 217.680,341.479 218.099,341.702 218.269 C 342.325 218.746,342.566 220.040,342.033 220.040 C 341.798 220.040,341.606 219.864,341.606 219.648 C 341.606 219.433,341.234 219.065,340.780 218.830 C 340.258 218.560,340.029 218.523,340.156 218.729 C 340.305 218.970,340.174 219.009,339.655 218.879 C 339.220 218.770,338.952 218.812,338.952 218.989 C 338.952 219.146,338.832 219.201,338.686 219.111 C 338.540 219.021,338.421 219.083,338.421 219.250 C 338.421 219.417,338.272 219.504,338.091 219.443 C 337.910 219.383,337.616 219.463,337.437 219.620 C 336.604 220.355,336.396 220.471,336.092 220.370 C 335.913 220.310,335.766 220.387,335.766 220.540 C 335.766 220.694,335.598 220.755,335.392 220.676 C 335.169 220.590,334.949 220.749,334.848 221.069 C 334.744 221.397,334.528 221.548,334.293 221.458 C 334.081 221.377,333.908 221.449,333.908 221.620 C 333.908 221.790,333.789 221.855,333.643 221.765 C 333.497 221.675,333.378 221.747,333.378 221.926 C 333.378 222.105,333.299 222.173,333.202 222.076 C 333.106 221.980,332.859 222.141,332.653 222.435 C 332.448 222.728,332.177 222.905,332.051 222.827 C 331.926 222.750,331.744 222.936,331.647 223.240 C 331.542 223.574,331.323 223.737,331.097 223.651 C 330.892 223.572,330.723 223.626,330.723 223.771 C 330.723 223.916,330.359 223.846,329.913 223.616 C 328.846 223.064,329.016 221.605,330.491 218.656 C 331.055 217.531,331.498 216.336,331.477 216.002 C 331.457 215.668,331.529 214.725,331.638 213.907 C 331.803 212.668,331.766 212.392,331.413 212.256 C 331.179 212.167,330.989 211.937,330.989 211.746 C 330.989 211.296,326.552 209.086,326.339 209.431 C 326.237 209.596,325.979 209.583,325.630 209.396 C 325.166 209.147,324.984 209.215,324.456 209.829 C 323.936 210.435,323.763 210.501,323.428 210.223 C 323.114 209.962,323.026 209.960,323.026 210.215 C 323.026 210.394,322.853 210.475,322.641 210.394 C 322.406 210.303,322.191 210.454,322.086 210.783 C 321.988 211.092,321.763 211.260,321.556 211.181 C 321.348 211.101,321.123 211.270,321.025 211.579 C 320.930 211.878,320.700 212.056,320.505 211.981 C 320.297 211.901,320.024 212.165,319.830 212.634 C 319.651 213.067,319.442 213.360,319.367 213.285 C 319.292 213.210,318.963 213.460,318.636 213.841 C 318.262 214.276,317.916 214.456,317.705 214.326 C 317.487 214.191,317.436 214.225,317.559 214.425 C 317.663 214.593,317.615 214.731,317.452 214.731 C 317.289 214.731,317.221 214.837,317.301 214.967 C 317.380 215.096,317.225 215.260,316.954 215.330 C 316.579 215.428,316.349 215.199,315.986 214.365 C 315.724 213.764,315.350 213.176,315.154 213.059 C 314.958 212.942,314.791 212.704,314.784 212.528 C 314.750 211.730,307.100 208.661,307.100 209.445 C 307.100 209.570,306.927 209.605,306.716 209.524 C 306.251 209.345,307.521 206.503,308.067 206.503 C 308.440 206.503,308.803 205.568,308.573 205.197 C 308.489 205.061,308.635 204.880,308.897 204.797 C 309.160 204.714,309.758 203.869,310.226 202.920 C 310.707 201.944,311.249 201.194,311.474 201.194 C 311.930 201.194,312.759 199.410,312.553 198.872 C 312.477 198.674,312.606 198.221,312.840 197.864 C 313.532 196.807,313.145 195.607,311.876 194.883 C 311.262 194.532,310.816 194.404,310.816 194.579 C 310.816 194.745,310.637 194.808,310.418 194.720 C 310.199 194.631,309.852 194.490,309.646 194.407 C 309.418 194.314,309.205 194.465,309.101 194.791 M267.705 198.424 C 267.477 198.653,267.170 198.765,267.023 198.674 C 266.876 198.583,266.755 198.648,266.755 198.818 C 266.755 198.989,266.582 199.061,266.371 198.980 C 266.140 198.892,265.922 199.034,265.826 199.336 C 265.738 199.614,265.520 199.784,265.341 199.715 C 264.193 199.275,262.806 203.915,263.070 207.307 C 263.110 207.822,263.051 208.392,262.939 208.574 C 262.826 208.756,262.816 209.278,262.917 209.734 C 263.071 210.438,263.032 210.538,262.657 210.395 C 262.397 210.295,262.282 210.333,262.377 210.487 C 262.467 210.632,262.428 210.750,262.291 210.750 C 262.154 210.750,261.891 211.114,261.706 211.560 C 261.492 212.078,261.236 212.318,260.997 212.227 C 260.791 212.148,260.689 212.191,260.771 212.323 C 260.852 212.455,260.822 212.603,260.703 212.652 C 260.265 212.832,257.962 217.420,258.023 217.990 C 258.057 218.315,257.870 219.015,257.607 219.547 C 257.267 220.233,257.189 220.735,257.338 221.273 C 257.453 221.689,257.519 222.306,257.485 222.642 C 257.451 222.979,257.601 223.525,257.818 223.856 C 258.035 224.187,258.253 224.739,258.303 225.082 C 258.398 225.732,264.925 229.280,265.113 228.784 C 265.159 228.663,265.353 228.623,265.544 228.696 C 265.734 228.770,266.076 228.644,266.303 228.417 C 266.530 228.190,266.888 228.070,267.099 228.151 C 267.310 228.232,267.677 228.105,267.913 227.868 C 268.150 227.632,268.464 227.512,268.611 227.603 C 268.758 227.694,268.879 227.638,268.879 227.478 C 268.879 227.270,269.029 227.268,269.409 227.472 C 269.812 227.687,269.945 227.673,269.959 227.415 C 269.969 227.227,270.080 227.313,270.206 227.605 C 270.361 227.966,270.442 228.008,270.461 227.737 C 270.482 227.422,270.545 227.437,270.761 227.809 C 271.117 228.421,276.393 231.073,276.517 230.702 C 276.568 230.548,276.760 230.479,276.944 230.549 C 278.613 231.190,277.972 225.809,276.275 224.932 C 275.856 224.715,275.514 224.362,275.514 224.147 C 275.514 223.932,275.391 223.756,275.240 223.756 C 274.854 223.756,274.487 222.642,274.763 222.308 C 274.889 222.155,275.259 221.621,275.585 221.121 C 275.911 220.621,276.280 220.263,276.404 220.325 C 276.528 220.387,276.904 219.900,277.240 219.244 C 277.575 218.587,277.951 218.079,278.075 218.117 C 278.199 218.154,278.313 217.911,278.327 217.577 C 278.342 217.244,278.491 216.714,278.659 216.399 C 279.247 215.300,279.034 214.876,277.520 214.133 C 276.138 213.456,276.067 213.447,275.914 213.932 C 275.817 214.237,275.599 214.380,275.368 214.291 C 275.156 214.210,274.983 214.283,274.983 214.453 C 274.983 214.623,274.869 214.692,274.730 214.606 C 274.590 214.519,274.274 214.757,274.027 215.134 C 273.780 215.511,273.422 215.760,273.232 215.687 C 273.043 215.614,272.815 215.781,272.727 216.058 C 272.313 217.364,270.908 216.863,271.179 215.506 C 271.257 215.115,271.189 214.714,271.029 214.615 C 270.868 214.516,270.737 214.158,270.737 213.819 C 270.737 213.481,270.554 213.052,270.330 212.867 C 269.969 212.567,269.982 212.476,270.442 212.047 C 270.727 211.781,271.037 211.324,271.130 211.030 C 271.223 210.736,271.442 210.523,271.615 210.556 C 272.365 210.701,274.730 205.005,274.324 204.033 C 274.118 203.540,274.018 202.873,274.103 202.551 C 274.206 202.154,274.059 201.756,273.644 201.314 C 273.308 200.956,273.143 200.658,273.278 200.650 C 273.530 200.636,268.624 198.047,268.300 198.023 C 268.201 198.015,267.933 198.196,267.705 198.424 M176.709 198.458 C 176.453 198.524,176.244 198.677,176.244 198.797 C 176.244 198.917,175.884 199.400,175.444 199.872 C 175.003 200.343,174.659 200.863,174.679 201.028 C 174.755 201.666,174.641 202.015,174.404 201.869 C 174.268 201.785,173.989 201.957,173.783 202.250 C 173.578 202.543,173.331 202.705,173.234 202.608 C 173.138 202.512,173.059 202.556,173.059 202.707 C 173.059 203.031,170.171 203.002,169.640 202.674 C 169.420 202.538,169.195 202.594,169.052 202.819 C 168.866 203.113,168.820 203.116,168.816 202.833 C 168.805 201.834,164.155 198.880,162.273 198.676 C 161.031 198.541,160.342 200.112,160.822 201.985 C 161.063 202.924,161.076 203.426,160.869 203.812 C 160.463 204.571,160.517 205.432,160.982 205.611 C 161.201 205.695,161.380 205.917,161.380 206.105 C 161.380 206.293,161.559 206.515,161.778 206.599 C 161.997 206.683,162.177 206.911,162.177 207.105 C 162.177 207.582,164.494 208.708,164.630 208.298 C 164.696 208.102,165.173 208.241,165.982 208.694 C 166.670 209.078,167.163 209.280,167.078 209.142 C 166.868 208.804,167.397 208.826,168.065 209.184 C 168.491 209.411,168.565 209.402,168.405 209.142 C 168.249 208.891,168.356 208.859,168.837 209.014 C 169.188 209.127,169.781 209.213,170.154 209.203 C 170.967 209.183,171.018 210.103,170.282 211.526 C 170.037 212.001,169.900 212.559,169.979 212.765 C 170.061 212.977,169.962 213.139,169.751 213.139 C 169.310 213.139,169.000 213.956,169.222 214.533 C 169.308 214.757,168.952 215.786,168.432 216.820 C 167.911 217.854,167.485 218.882,167.485 219.104 C 167.485 219.327,167.384 219.509,167.261 219.509 C 167.138 219.509,166.817 219.919,166.547 220.421 C 166.277 220.922,165.989 221.320,165.908 221.304 C 165.625 221.248,164.300 221.984,164.300 222.198 C 164.300 222.315,164.136 222.349,163.936 222.272 C 163.736 222.196,163.407 222.297,163.206 222.499 C 163.005 222.700,162.721 222.902,162.575 222.948 C 161.932 223.150,161.115 223.589,161.115 223.732 C 161.115 223.818,160.826 223.889,160.474 223.889 C 160.008 223.889,159.905 223.802,160.095 223.573 C 160.239 223.399,160.324 223.040,160.283 222.776 C 160.243 222.512,160.360 222.023,160.544 221.689 C 160.728 221.355,160.805 220.848,160.714 220.562 C 160.585 220.155,160.645 220.080,160.995 220.214 C 161.371 220.359,161.413 220.262,161.264 219.583 C 161.134 218.991,161.276 218.396,161.807 217.314 C 162.839 215.208,162.447 213.746,160.620 212.890 C 159.352 212.296,157.930 212.433,157.930 213.148 C 157.930 213.306,157.834 213.376,157.717 213.304 C 157.462 213.146,153.948 220.000,153.948 220.657 C 153.948 220.911,153.774 221.185,153.560 221.267 C 153.347 221.349,153.099 221.646,153.010 221.926 C 152.921 222.207,152.741 222.370,152.611 222.290 C 152.480 222.209,152.228 222.374,152.052 222.657 C 151.875 222.940,151.588 223.117,151.414 223.050 C 151.239 222.984,150.931 223.095,150.729 223.297 C 150.526 223.500,150.212 223.616,150.031 223.556 C 149.850 223.496,149.701 223.546,149.701 223.667 C 149.701 223.789,149.387 223.907,149.003 223.929 C 148.619 223.951,148.216 224.113,148.107 224.289 C 147.966 224.518,147.858 224.525,147.728 224.315 C 147.628 224.153,147.679 224.021,147.840 224.021 C 148.035 224.021,148.092 223.489,148.009 222.431 C 147.942 221.557,147.978 220.784,148.091 220.714 C 148.254 220.613,148.293 217.903,148.143 217.058 C 148.022 216.371,144.942 215.278,144.581 215.794 C 144.378 216.084,144.140 216.248,144.051 216.158 C 143.878 215.986,142.269 217.627,142.269 217.976 C 142.269 218.089,142.086 218.182,141.863 218.182 C 141.639 218.182,141.388 218.361,141.304 218.580 C 141.220 218.799,140.981 218.978,140.773 218.978 C 140.565 218.978,140.328 219.153,140.246 219.366 C 140.164 219.580,139.875 219.825,139.604 219.911 C 139.333 219.997,139.035 220.309,138.941 220.604 C 138.847 220.900,138.714 221.085,138.644 221.015 C 138.575 220.946,138.106 221.301,137.603 221.805 C 137.099 222.308,136.580 222.654,136.448 222.573 C 136.317 222.492,136.165 222.562,136.109 222.728 C 136.044 222.923,135.841 222.864,135.538 222.561 C 135.206 222.229,135.152 222.008,135.351 221.809 C 135.507 221.653,135.634 221.186,135.634 220.770 C 135.634 220.354,135.798 219.691,135.999 219.297 C 136.201 218.899,136.370 217.739,136.378 216.692 L 136.393 214.805 135.040 214.171 C 132.707 213.078,132.384 213.204,131.209 215.660 C 130.115 217.946,129.705 218.528,129.395 218.236 C 129.286 218.133,129.282 218.324,129.385 218.659 C 129.506 219.052,129.418 219.506,129.139 219.932 C 128.900 220.297,128.774 220.815,128.859 221.083 C 129.062 221.722,128.495 222.953,128.072 222.791 C 127.673 222.638,127.622 220.512,128.012 220.264 C 128.483 219.964,128.478 216.853,128.006 216.132 C 127.504 215.366,124.675 213.879,124.122 214.091 C 123.907 214.174,123.490 214.112,123.195 213.955 C 122.840 213.765,122.604 213.758,122.495 213.935 C 122.385 214.113,122.159 214.110,121.815 213.926 C 121.446 213.728,121.301 213.736,121.301 213.954 C 121.301 214.121,121.129 214.191,120.920 214.111 C 120.710 214.031,120.496 214.092,120.444 214.248 C 120.392 214.405,120.026 214.532,119.631 214.532 C 119.235 214.532,118.912 214.644,118.912 214.780 C 118.912 214.916,118.792 214.954,118.646 214.864 C 118.500 214.774,118.381 214.839,118.381 215.009 C 118.381 215.180,118.220 215.257,118.024 215.182 C 117.828 215.107,117.507 215.267,117.312 215.537 C 117.117 215.808,116.859 215.970,116.740 215.896 C 116.621 215.822,116.523 215.880,116.523 216.025 C 116.523 216.170,116.290 216.362,116.006 216.452 C 115.721 216.543,115.416 216.843,115.328 217.120 C 115.238 217.404,115.011 217.564,114.808 217.486 C 114.598 217.405,114.374 217.579,114.272 217.901 C 114.175 218.206,114.009 218.401,113.903 218.336 C 112.482 217.457,109.474 226.623,110.818 227.738 C 111.006 227.895,111.100 228.249,111.028 228.527 C 110.876 229.105,114.688 231.250,114.875 230.691 C 114.946 230.477,115.132 230.481,115.549 230.705 C 116.270 231.092,117.585 231.187,117.585 230.851 C 117.585 230.713,117.790 230.679,118.041 230.775 C 118.292 230.872,118.421 230.874,118.328 230.781 C 117.959 230.412,119.234 229.342,119.728 229.606 C 120.066 229.787,120.316 229.745,120.600 229.461 C 121.108 228.954,121.280 229.398,121.321 231.321 C 121.337 232.050,121.479 233.066,121.636 233.577 C 121.972 234.667,122.009 235.728,121.727 236.185 C 121.617 236.363,121.556 237.014,121.592 237.631 C 121.633 238.335,121.441 239.239,121.075 240.061 C 120.754 240.781,120.537 241.497,120.592 241.654 C 120.647 241.810,120.009 243.311,119.175 244.990 C 118.340 246.669,117.506 248.434,117.320 248.914 C 117.134 249.393,116.921 249.723,116.846 249.648 C 116.683 249.485,115.727 250.542,115.727 250.886 C 115.727 251.018,115.606 251.052,115.459 250.961 C 115.312 250.870,115.120 250.983,115.033 251.211 C 114.945 251.439,114.707 251.626,114.504 251.626 C 114.300 251.626,114.134 251.752,114.134 251.907 C 114.134 252.061,114.015 252.114,113.869 252.024 C 113.723 251.934,113.603 251.999,113.603 252.169 C 113.603 252.340,113.432 252.413,113.222 252.333 C 113.013 252.252,112.798 252.316,112.745 252.475 C 112.677 252.679,112.477 252.672,112.064 252.451 C 111.672 252.241,111.480 252.230,111.480 252.420 C 111.480 252.903,110.012 251.978,109.703 251.299 C 109.485 250.822,109.503 250.509,109.774 250.019 C 109.972 249.662,110.138 249.104,110.143 248.778 C 110.155 248.006,111.512 245.244,111.794 245.418 C 111.913 245.492,112.011 245.419,112.011 245.255 C 112.011 245.092,112.116 245.024,112.245 245.104 C 112.374 245.183,112.626 244.896,112.805 244.465 C 112.983 244.033,113.357 243.608,113.636 243.520 C 113.914 243.432,114.082 243.262,114.008 243.143 C 113.935 243.024,114.052 242.779,114.270 242.599 C 114.937 242.045,114.799 239.772,114.075 239.384 C 113.235 238.935,111.466 238.877,111.306 239.293 C 111.235 239.480,110.886 239.706,110.532 239.795 C 110.177 239.884,109.887 240.070,109.887 240.209 C 109.887 240.348,109.708 240.392,109.489 240.308 C 109.270 240.224,109.091 240.295,109.091 240.465 C 109.091 240.635,108.990 240.712,108.866 240.636 C 108.743 240.559,108.369 241.080,108.035 241.793 C 107.701 242.505,107.290 243.035,107.121 242.971 C 106.953 242.906,106.401 243.631,105.896 244.583 C 105.390 245.534,104.843 246.314,104.679 246.315 C 104.272 246.318,103.979 248.756,104.289 249.571 C 104.455 250.007,104.445 250.326,104.261 250.511 C 103.921 250.850,104.218 252.687,104.612 252.687 C 104.776 252.687,104.819 252.994,104.719 253.450 C 104.551 254.212,105.282 256.403,105.703 256.403 C 105.815 256.403,105.906 256.581,105.906 256.799 C 105.906 257.031,106.901 257.694,108.320 258.407 C 109.647 259.074,110.656 259.493,110.560 259.338 C 110.347 258.993,110.940 258.977,111.473 259.313 C 111.724 259.472,111.926 259.459,112.038 259.278 C 112.158 259.085,112.364 259.081,112.691 259.263 C 113.038 259.458,113.272 259.427,113.549 259.150 C 113.759 258.940,114.066 258.815,114.231 258.872 C 114.397 258.928,114.711 258.784,114.930 258.552 C 115.149 258.319,115.615 258.097,115.966 258.058 C 116.316 258.020,116.746 257.792,116.921 257.553 C 117.123 257.277,117.374 257.197,117.611 257.334 C 117.815 257.453,117.895 257.454,117.789 257.336 C 117.596 257.123,118.538 256.138,118.934 256.138 C 119.048 256.138,119.219 255.893,119.315 255.593 C 119.410 255.293,119.622 255.092,119.787 255.147 C 120.147 255.267,121.218 254.164,121.449 253.434 C 121.540 253.147,121.687 252.985,121.776 253.074 C 122.184 253.483,126.220 246.007,125.958 245.325 C 125.873 245.104,125.945 244.752,126.118 244.544 C 126.425 244.175,126.821 242.504,126.995 240.846 C 127.043 240.392,127.214 239.774,127.375 239.473 C 127.536 239.171,127.665 238.647,127.661 238.308 C 127.625 235.425,127.914 230.664,128.152 230.220 C 128.313 229.917,128.375 229.235,128.289 228.704 C 128.119 227.654,128.912 227.219,129.174 228.219 C 129.304 228.717,133.245 230.845,133.245 230.417 C 133.245 230.287,133.715 230.205,134.290 230.235 C 134.865 230.264,135.276 230.192,135.204 230.074 C 134.977 229.708,135.752 229.840,136.371 230.274 C 136.760 230.546,136.961 230.582,136.961 230.378 C 136.961 230.195,137.147 230.141,137.417 230.244 C 137.668 230.341,137.795 230.341,137.699 230.245 C 137.364 229.910,138.504 228.990,139.070 229.138 C 139.370 229.216,139.549 229.172,139.467 229.040 C 139.385 228.907,139.508 228.799,139.741 228.799 C 139.973 228.799,140.234 228.613,140.321 228.386 C 140.409 228.158,140.644 228.035,140.844 228.112 C 141.044 228.189,141.208 228.136,141.208 227.994 C 141.208 227.539,141.784 227.721,141.914 228.218 C 142.055 228.759,146.516 231.094,146.516 230.627 C 146.516 230.466,146.693 230.403,146.910 230.486 C 147.126 230.569,147.794 230.464,148.393 230.252 C 149.175 229.976,149.627 229.944,149.991 230.139 C 150.352 230.332,150.498 230.323,150.498 230.107 C 150.498 229.940,150.677 229.873,150.896 229.957 C 151.115 230.041,151.294 229.981,151.294 229.824 C 151.294 229.667,151.473 229.607,151.692 229.691 C 151.911 229.775,152.090 229.743,152.090 229.620 C 152.090 229.497,152.414 229.396,152.809 229.396 C 153.204 229.396,153.572 229.263,153.627 229.100 C 153.697 228.889,153.875 228.883,154.243 229.080 C 154.527 229.232,154.700 229.452,154.628 229.570 C 154.448 229.861,155.712 230.411,156.163 230.238 C 156.362 230.161,156.984 230.369,157.543 230.699 C 158.103 231.029,158.471 231.155,158.362 230.978 C 158.239 230.779,158.321 230.657,158.578 230.657 C 158.805 230.657,158.991 230.563,158.991 230.448 C 158.991 230.334,159.200 230.223,159.456 230.202 C 161.071 230.071,162.299 229.827,162.433 229.610 C 162.523 229.465,162.745 229.454,162.956 229.585 C 163.189 229.729,163.469 229.668,163.719 229.418 C 163.936 229.201,164.327 229.079,164.588 229.147 C 164.849 229.215,165.126 229.105,165.203 228.902 C 165.281 228.699,165.528 228.534,165.751 228.534 C 165.975 228.534,166.158 228.407,166.158 228.252 C 166.158 228.098,166.277 228.045,166.423 228.135 C 166.569 228.226,166.689 228.173,166.689 228.018 C 166.689 227.864,166.808 227.737,166.954 227.737 C 167.100 227.737,167.220 227.915,167.220 228.133 C 167.220 228.365,168.214 229.028,169.634 229.741 C 170.961 230.407,171.969 230.827,171.874 230.672 C 171.648 230.307,172.151 230.313,172.843 230.683 C 173.268 230.911,173.343 230.902,173.182 230.642 C 173.033 230.401,173.132 230.349,173.536 230.454 C 173.843 230.535,174.137 230.475,174.189 230.321 C 174.254 230.125,174.432 230.125,174.780 230.320 C 175.153 230.529,175.375 230.502,175.663 230.215 C 175.874 230.003,176.211 229.893,176.411 229.970 C 176.611 230.047,176.775 229.981,176.775 229.824 C 176.775 229.667,176.960 229.610,177.187 229.696 C 177.454 229.799,177.533 229.748,177.411 229.550 C 177.283 229.343,177.406 229.294,177.796 229.396 C 178.163 229.492,178.306 229.444,178.194 229.263 C 178.082 229.083,178.222 229.034,178.579 229.127 C 178.887 229.208,179.179 229.153,179.228 229.005 C 179.277 228.857,180.298 229.230,181.497 229.833 C 182.695 230.435,183.676 230.828,183.676 230.705 C 183.676 230.582,184.085 230.495,184.585 230.512 C 185.085 230.528,185.437 230.448,185.366 230.334 C 185.295 230.220,185.405 230.126,185.611 230.126 C 185.816 230.126,186.261 229.886,186.600 229.592 C 186.966 229.274,187.414 229.120,187.702 229.211 C 187.977 229.299,188.188 229.236,188.188 229.067 C 188.188 228.902,188.308 228.841,188.454 228.932 C 188.600 229.022,188.719 228.956,188.719 228.786 C 188.719 228.616,188.898 228.545,189.117 228.629 C 189.336 228.714,189.516 228.667,189.516 228.525 C 189.516 228.088,190.053 228.242,190.236 228.733 C 190.332 228.988,190.629 229.355,190.896 229.547 C 191.164 229.739,191.327 229.986,191.260 230.095 C 191.193 230.203,191.934 230.685,192.906 231.164 C 193.978 231.693,194.712 231.922,194.771 231.747 C 194.839 231.540,195.028 231.544,195.430 231.759 C 195.848 231.982,196.019 231.983,196.093 231.761 C 196.162 231.553,196.439 231.588,196.998 231.877 C 197.536 232.156,197.734 232.183,197.597 231.961 C 197.453 231.729,197.522 231.678,197.822 231.794 C 198.343 231.994,200.684 231.261,201.078 230.774 C 201.233 230.583,201.691 230.344,202.095 230.242 C 202.499 230.141,202.954 229.784,203.107 229.449 C 203.259 229.115,203.527 228.896,203.702 228.963 C 203.877 229.030,204.147 228.805,204.303 228.463 C 204.474 228.088,205.009 227.702,205.654 227.489 C 206.405 227.241,206.865 226.871,207.204 226.242 C 207.469 225.751,207.839 225.348,208.027 225.348 C 208.214 225.348,208.675 224.700,209.050 223.909 C 209.424 223.117,209.900 222.404,210.107 222.325 C 210.600 222.136,212.077 223.588,212.077 224.262 C 212.077 224.550,212.209 224.868,212.369 224.967 C 212.693 225.167,213.532 226.956,213.452 227.276 C 213.424 227.388,213.801 227.670,214.290 227.903 C 214.968 228.226,215.152 228.460,215.069 228.894 C 214.913 229.715,216.113 230.293,217.784 230.201 C 218.514 230.162,219.320 230.121,219.575 230.111 C 219.831 230.101,220.040 229.974,220.040 229.828 C 220.040 229.683,220.151 229.633,220.287 229.717 C 220.423 229.801,220.610 229.746,220.703 229.595 C 220.797 229.444,220.992 229.395,221.138 229.485 C 221.283 229.575,221.544 229.465,221.716 229.240 C 222.481 228.247,223.760 228.286,225.932 229.367 C 227.130 229.963,228.043 230.275,228.138 230.122 C 228.245 229.949,228.471 229.951,228.799 230.126 C 229.135 230.306,229.352 230.305,229.465 230.122 C 229.557 229.974,229.743 229.921,229.879 230.005 C 230.015 230.089,230.126 230.023,230.126 229.858 C 230.126 229.680,230.341 229.628,230.657 229.728 C 230.955 229.822,231.188 229.776,231.188 229.621 C 231.188 229.470,231.367 229.415,231.586 229.499 C 231.805 229.583,231.984 229.536,231.984 229.394 C 231.984 229.252,232.588 228.523,233.327 227.773 C 234.065 227.023,234.603 226.302,234.522 226.172 C 234.442 226.042,234.559 225.865,234.782 225.779 C 235.784 225.394,234.085 216.058,233.012 216.058 C 232.712 216.058,232.555 215.003,232.830 214.833 C 232.976 214.743,233.037 214.363,232.966 213.990 C 232.892 213.602,232.995 213.152,233.206 212.940 C 233.410 212.737,233.582 212.668,233.589 212.788 C 233.595 212.908,233.888 212.468,234.240 211.812 C 235.262 209.903,235.155 209.558,233.245 208.588 C 231.682 207.794,229.983 207.384,230.286 207.873 C 230.361 207.996,230.237 208.096,230.009 208.096 C 229.781 208.096,229.595 208.211,229.595 208.353 C 229.595 208.494,229.440 208.550,229.250 208.477 C 228.833 208.317,228.003 209.943,228.003 210.920 C 228.003 211.386,227.888 211.559,227.643 211.465 C 226.958 211.202,225.995 214.227,226.578 214.810 C 226.670 214.903,226.771 215.396,226.802 215.906 C 226.839 216.527,227.120 217.102,227.648 217.642 C 228.444 218.456,229.398 220.923,229.394 222.159 C 229.394 222.526,229.492 222.890,229.613 222.967 C 229.734 223.043,229.736 223.263,229.617 223.455 C 229.378 223.842,227.206 222.919,227.206 222.430 C 227.206 222.082,225.658 221.309,225.346 221.501 C 225.207 221.587,224.828 221.515,224.504 221.341 C 224.088 221.119,223.885 221.111,223.818 221.314 C 223.765 221.473,223.550 221.537,223.341 221.456 C 223.131 221.376,222.960 221.439,222.960 221.596 C 222.960 221.753,222.780 221.812,222.561 221.728 C 222.336 221.642,222.163 221.722,222.163 221.914 C 222.163 222.100,222.085 222.173,221.989 222.077 C 221.893 221.981,221.654 222.035,221.458 222.198 C 221.262 222.361,221.102 222.411,221.102 222.309 C 221.102 222.208,220.907 222.320,220.669 222.558 C 220.431 222.795,220.079 222.930,219.886 222.856 C 219.693 222.781,219.463 222.953,219.372 223.238 C 219.193 223.803,219.023 223.860,218.505 223.531 C 218.312 223.409,218.240 223.117,218.339 222.859 C 218.449 222.572,218.338 222.274,218.038 222.055 C 217.776 221.864,217.519 221.425,217.466 221.079 C 217.414 220.733,217.195 220.352,216.980 220.232 C 216.765 220.112,216.589 219.853,216.589 219.657 C 216.589 219.461,216.410 219.232,216.191 219.148 C 215.972 219.064,215.793 218.826,215.793 218.620 C 215.793 218.415,215.435 218.098,214.997 217.916 C 214.559 217.735,214.200 217.425,214.200 217.227 C 214.200 217.030,213.853 216.689,213.429 216.469 C 212.585 216.033,212.522 214.651,213.278 213.139 C 213.982 211.729,213.739 210.243,212.724 209.760 C 212.222 209.520,211.812 209.170,211.812 208.982 C 211.812 208.694,210.537 207.830,210.112 207.830 C 209.429 207.830,205.342 214.902,205.464 215.872 C 205.556 216.604,205.420 216.903,205.057 216.764 C 204.650 216.608,204.227 217.456,204.496 217.890 C 204.709 218.235,204.373 219.005,204.086 218.828 C 203.956 218.747,203.849 218.799,203.849 218.944 C 203.849 219.088,203.435 219.645,202.929 220.181 C 202.423 220.717,201.934 221.392,201.843 221.680 C 201.752 221.968,201.610 222.136,201.528 222.055 C 201.447 221.973,201.099 222.210,200.755 222.581 C 200.412 222.951,200.020 223.187,199.885 223.103 C 199.750 223.020,199.561 223.201,199.464 223.506 C 199.355 223.850,199.142 224.003,198.901 223.911 C 198.683 223.827,198.584 223.877,198.675 224.024 C 198.764 224.169,198.718 224.287,198.574 224.287 C 198.429 224.287,198.237 224.519,198.146 224.804 C 198.047 225.117,197.830 225.263,197.598 225.174 C 197.386 225.093,197.213 225.161,197.213 225.327 C 197.213 225.528,196.957 225.495,196.440 225.228 C 195.886 224.941,195.705 224.685,195.800 224.322 C 195.873 224.044,195.802 223.735,195.644 223.637 C 195.245 223.391,195.298 222.428,195.753 221.632 C 195.962 221.267,196.140 221.088,196.150 221.234 C 196.159 221.380,196.702 220.484,197.356 219.244 C 198.009 218.003,198.524 216.808,198.500 216.589 C 198.476 216.370,198.546 215.869,198.656 215.475 C 198.881 214.671,198.390 212.853,197.864 212.542 C 197.679 212.433,197.588 212.113,197.662 211.831 C 197.867 211.046,195.674 209.955,195.198 210.605 C 194.896 211.019,194.795 211.011,193.787 210.497 C 193.132 210.163,192.701 210.061,192.701 210.242 C 192.701 210.407,192.522 210.472,192.303 210.388 C 192.084 210.304,191.904 210.364,191.904 210.521 C 191.904 210.678,191.725 210.738,191.506 210.654 C 191.287 210.570,191.108 210.613,191.108 210.750 C 191.108 210.887,190.912 210.923,190.672 210.831 C 190.408 210.730,190.099 210.849,189.893 211.131 C 189.705 211.389,189.436 211.528,189.296 211.442 C 189.155 211.355,188.972 211.462,188.888 211.680 C 188.804 211.898,188.553 212.077,188.329 212.077 C 188.106 212.077,187.923 212.200,187.923 212.351 C 187.923 212.501,187.718 212.703,187.467 212.799 C 187.217 212.895,186.507 213.459,185.890 214.052 C 185.273 214.644,184.612 215.277,184.422 215.458 C 183.572 216.262,183.175 216.796,182.642 217.850 C 182.329 218.470,181.923 218.978,181.739 218.978 C 181.556 218.978,181.100 219.605,180.726 220.372 C 180.352 221.138,179.908 221.736,179.739 221.699 C 179.571 221.663,179.291 221.860,179.118 222.137 C 178.945 222.414,178.646 222.581,178.453 222.506 C 178.260 222.432,178.102 222.510,178.102 222.680 C 178.102 222.849,177.744 223.112,177.306 223.265 C 176.868 223.417,176.510 223.657,176.510 223.797 C 176.510 223.938,176.382 223.974,176.227 223.878 C 176.071 223.781,175.802 223.894,175.629 224.127 C 175.328 224.534,174.838 224.607,173.259 224.479 C 172.288 224.400,172.650 221.820,173.803 220.604 C 174.018 220.377,174.085 219.951,173.981 219.476 C 173.877 219.003,173.922 218.713,174.100 218.713 C 174.257 218.713,174.386 218.513,174.386 218.268 C 174.386 218.024,174.874 216.876,175.471 215.717 C 176.068 214.558,176.502 213.402,176.435 213.149 C 176.369 212.896,176.474 212.402,176.668 212.051 C 176.863 211.700,177.026 211.520,177.031 211.651 C 177.036 211.782,177.339 211.567,177.704 211.173 C 178.315 210.513,178.481 210.143,178.399 209.622 C 178.382 209.512,178.494 209.423,178.649 209.423 C 178.803 209.423,178.864 209.317,178.784 209.187 C 178.563 208.830,179.714 208.618,180.269 208.915 C 180.610 209.097,180.756 209.085,180.756 208.873 C 180.756 208.706,180.936 208.638,181.155 208.722 C 181.374 208.806,181.553 208.772,181.553 208.646 C 181.553 208.520,182.023 208.440,182.598 208.470 C 183.213 208.501,183.579 208.418,183.486 208.267 C 183.389 208.112,183.577 208.088,183.966 208.207 C 184.318 208.314,184.912 208.432,185.287 208.469 C 185.662 208.505,186.099 208.616,186.259 208.715 C 186.420 208.814,186.596 208.758,186.652 208.590 C 186.728 208.361,186.901 208.363,187.339 208.598 C 187.771 208.829,187.923 208.832,187.923 208.607 C 187.923 208.441,188.098 208.371,188.313 208.454 C 188.527 208.536,188.774 208.488,188.861 208.346 C 188.958 208.189,189.187 208.182,189.449 208.329 C 189.734 208.488,189.998 208.447,190.241 208.204 C 190.480 207.966,191.010 207.878,191.784 207.951 C 192.597 208.027,193.086 207.938,193.360 207.663 C 193.579 207.445,193.861 207.329,193.987 207.407 C 194.256 207.573,194.824 206.429,194.824 205.723 C 194.824 205.453,194.645 205.164,194.426 205.080 C 194.207 204.996,194.028 204.769,194.028 204.576 C 194.028 204.383,193.371 203.903,192.568 203.509 C 191.765 203.115,191.108 202.915,191.108 203.065 C 191.108 203.245,190.946 203.250,190.628 203.080 C 190.012 202.750,188.108 202.896,187.979 203.283 C 187.911 203.487,187.728 203.498,187.389 203.316 C 186.328 202.748,185.496 202.511,185.695 202.833 C 185.831 203.053,185.740 203.078,185.379 202.919 C 185.099 202.797,184.035 202.671,183.013 202.641 C 180.367 202.562,180.297 202.552,180.691 202.302 C 181.745 201.633,178.367 197.728,177.234 198.306 C 177.200 198.322,176.964 198.391,176.709 198.458 M78.036 208.925 C 78.036 209.084,77.857 209.145,77.638 209.061 C 77.419 208.977,77.240 209.037,77.240 209.194 C 77.240 209.351,77.082 209.419,76.889 209.345 C 76.696 209.271,76.393 209.442,76.216 209.725 C 76.040 210.008,75.801 210.182,75.687 210.111 C 75.381 209.922,71.339 217.904,71.512 218.356 C 71.593 218.567,71.555 218.676,71.428 218.597 C 71.301 218.518,71.050 218.808,70.871 219.240 C 70.493 220.152,69.683 221.154,69.485 220.955 C 69.410 220.880,69.196 221.187,69.009 221.638 C 68.807 222.125,68.530 222.403,68.323 222.323 C 68.133 222.250,67.902 222.425,67.811 222.711 C 67.720 222.998,67.535 223.164,67.400 223.080 C 67.264 222.997,67.153 223.052,67.153 223.204 C 67.153 223.356,66.855 223.555,66.490 223.647 C 66.125 223.738,65.826 223.916,65.826 224.042 C 65.826 224.167,65.647 224.201,65.428 224.117 C 65.209 224.033,65.030 224.101,65.030 224.268 C 65.030 224.494,64.888 224.495,64.467 224.270 C 64.023 224.032,63.948 224.039,64.112 224.305 C 64.257 224.539,64.195 224.594,63.911 224.485 C 63.686 224.399,63.368 224.462,63.204 224.626 C 63.040 224.790,62.906 224.825,62.906 224.705 C 62.906 224.585,62.727 224.636,62.508 224.818 C 62.289 224.999,62.108 225.044,62.106 224.916 C 62.104 224.789,61.998 224.849,61.870 225.051 C 61.628 225.433,61.048 225.246,61.048 224.786 C 61.048 224.640,61.168 224.595,61.314 224.685 C 61.460 224.775,61.579 224.712,61.579 224.546 C 61.579 224.379,61.726 224.291,61.905 224.351 C 62.404 224.517,63.027 223.787,63.941 221.964 C 64.398 221.052,64.931 220.305,65.126 220.305 C 65.505 220.305,66.541 218.277,66.290 218.026 C 66.207 217.943,66.375 217.344,66.662 216.694 C 67.603 214.568,66.892 213.257,64.031 211.838 C 62.805 211.230,61.890 210.874,61.996 211.046 C 62.135 211.270,61.991 211.308,61.486 211.182 C 61.051 211.072,60.783 211.114,60.783 211.291 C 60.783 211.449,60.672 211.509,60.536 211.425 C 60.400 211.341,60.210 211.399,60.114 211.555 C 59.995 211.748,59.805 211.728,59.514 211.493 C 59.275 211.299,59.168 211.280,59.269 211.450 C 59.487 211.813,58.791 212.455,58.425 212.229 C 58.283 212.141,58.091 212.310,57.997 212.604 C 57.904 212.898,57.725 213.139,57.599 213.139 C 57.473 213.139,56.927 213.557,56.385 214.068 C 55.843 214.579,55.316 214.997,55.212 214.997 C 55.109 214.997,54.810 215.471,54.549 216.051 C 54.287 216.631,53.992 217.056,53.893 216.994 C 53.794 216.933,53.542 217.127,53.333 217.425 C 53.124 217.723,52.822 218.153,52.661 218.381 C 52.241 218.976,51.853 218.611,51.666 217.447 C 51.500 216.407,49.293 214.828,49.045 215.572 C 48.986 215.748,48.442 215.605,47.633 215.201 C 46.639 214.705,46.133 214.595,45.565 214.753 C 45.151 214.868,44.643 214.898,44.437 214.819 C 44.230 214.739,44.061 214.803,44.061 214.960 C 44.061 215.117,43.882 215.177,43.663 215.093 C 43.444 215.009,43.265 215.079,43.265 215.249 C 43.265 215.420,43.145 215.485,42.999 215.395 C 42.853 215.305,42.734 215.370,42.734 215.540 C 42.734 215.710,42.555 215.781,42.336 215.697 C 42.117 215.613,41.938 215.673,41.938 215.830 C 41.938 215.987,41.758 216.046,41.539 215.962 C 41.321 215.878,41.141 215.938,41.141 216.095 C 41.141 216.252,40.962 216.312,40.743 216.228 C 40.524 216.144,40.345 216.211,40.345 216.376 C 40.345 216.542,40.271 216.604,40.181 216.513 C 40.090 216.423,39.866 216.493,39.682 216.668 C 39.499 216.844,39.080 217.167,38.752 217.386 C 38.425 217.605,38.021 217.913,37.855 218.070 C 37.689 218.228,37.397 218.305,37.206 218.242 C 37.016 218.178,36.796 218.369,36.718 218.666 C 36.639 218.968,36.425 219.149,36.234 219.075 C 36.021 218.993,35.606 219.505,35.140 220.427 C 34.727 221.242,34.250 221.856,34.080 221.791 C 33.716 221.651,32.797 223.550,32.980 224.064 C 33.049 224.260,32.932 224.762,32.720 225.182 C 32.457 225.703,32.398 226.248,32.532 226.907 C 32.641 227.437,32.735 228.288,32.741 228.799 C 32.747 229.310,32.938 229.923,33.165 230.161 C 33.722 230.748,37.425 232.585,37.425 232.275 C 37.425 231.987,39.043 232.070,39.550 232.383 C 39.794 232.533,39.832 232.494,39.681 232.249 C 39.521 231.989,39.612 231.939,40.038 232.050 C 40.353 232.133,40.552 232.104,40.480 231.988 C 40.242 231.602,41.703 231.414,42.147 231.774 C 42.387 231.969,42.492 231.987,42.390 231.815 C 42.173 231.454,42.867 230.810,43.230 231.034 C 43.370 231.120,43.532 231.050,43.590 230.877 C 43.810 230.214,44.305 230.963,44.152 231.728 C 44.066 232.160,44.107 232.663,44.244 232.846 C 44.510 233.201,44.519 234.644,44.257 235.067 C 44.170 235.207,44.089 235.915,44.077 236.639 C 44.037 238.931,43.897 239.903,43.545 240.328 C 43.350 240.562,43.265 241.056,43.347 241.472 C 43.460 242.044,42.932 243.273,40.923 247.113 C 39.510 249.813,38.384 252.112,38.421 252.222 C 38.457 252.332,38.308 252.422,38.089 252.422 C 37.870 252.422,37.691 252.549,37.691 252.703 C 37.691 252.858,37.581 252.916,37.447 252.833 C 37.313 252.750,37.010 252.876,36.773 253.112 C 36.537 253.348,36.061 253.558,35.716 253.579 C 35.370 253.600,35.154 253.725,35.236 253.857 C 35.318 253.990,35.154 254.038,34.871 253.964 C 34.588 253.890,34.207 253.991,34.023 254.187 C 33.058 255.221,31.704 253.932,31.748 252.024 C 31.780 250.664,33.064 247.542,33.484 247.802 C 33.599 247.873,33.870 247.508,34.086 246.991 C 34.302 246.475,34.664 246.052,34.890 246.052 C 35.117 246.052,35.302 245.936,35.302 245.795 C 35.302 245.653,35.491 245.610,35.723 245.699 C 36.024 245.815,36.129 245.718,36.091 245.359 C 36.000 244.512,36.085 244.194,36.401 244.194 C 37.263 244.194,37.735 242.392,37.027 241.805 C 36.808 241.623,36.626 241.340,36.623 241.175 C 36.614 240.783,34.771 239.859,34.771 240.246 C 34.771 240.405,34.586 240.463,34.359 240.376 C 34.092 240.274,34.013 240.325,34.135 240.523 C 34.263 240.730,34.140 240.779,33.750 240.677 C 33.435 240.595,33.243 240.632,33.322 240.760 C 33.401 240.888,33.162 241.069,32.791 241.162 C 32.420 241.255,32.117 241.445,32.117 241.584 C 32.117 241.723,31.997 241.762,31.851 241.672 C 31.705 241.582,31.586 241.647,31.586 241.818 C 31.586 242.001,31.400 242.056,31.130 241.952 C 30.878 241.856,30.753 241.857,30.851 241.955 C 31.107 242.211,30.315 242.933,29.995 242.735 C 29.848 242.644,29.728 242.687,29.728 242.831 C 29.728 242.974,29.373 243.447,28.938 243.881 C 28.504 244.315,27.495 245.907,26.696 247.418 C 25.127 250.386,25.110 250.496,25.536 255.087 C 25.636 256.163,26.605 257.996,27.074 257.996 C 27.165 257.996,27.397 258.396,27.589 258.885 C 27.967 259.848,30.924 261.582,31.688 261.289 C 31.897 261.209,32.438 261.334,32.889 261.567 C 33.340 261.800,33.709 261.881,33.709 261.746 C 33.709 261.612,34.186 261.526,34.769 261.556 C 35.578 261.597,35.864 261.499,35.977 261.144 C 36.064 260.871,36.285 260.739,36.510 260.825 C 36.721 260.906,36.894 260.833,36.894 260.663 C 36.894 260.493,37.014 260.427,37.160 260.518 C 37.306 260.608,37.425 260.547,37.425 260.383 C 37.425 260.209,37.638 260.151,37.935 260.245 C 38.300 260.361,38.493 260.252,38.617 259.861 C 38.713 259.561,38.911 259.390,39.057 259.480 C 39.204 259.571,39.548 259.423,39.822 259.152 C 40.771 258.213,41.149 257.970,41.410 258.131 C 41.554 258.220,41.672 258.159,41.672 257.996 C 41.672 257.833,41.778 257.765,41.907 257.844 C 42.036 257.924,42.292 257.626,42.476 257.183 C 42.659 256.739,42.947 256.428,43.115 256.493 C 43.286 256.559,43.927 255.621,44.573 254.359 C 45.382 252.779,45.793 252.215,45.951 252.464 C 46.120 252.732,46.187 252.689,46.221 252.289 C 46.332 250.957,46.685 249.983,46.989 250.171 C 47.365 250.403,48.140 248.698,47.809 248.366 C 47.613 248.171,47.726 247.905,48.182 247.482 C 48.547 247.144,48.821 246.606,48.802 246.265 C 48.784 245.929,48.971 245.193,49.218 244.630 C 49.464 244.066,49.604 243.543,49.527 243.467 C 49.451 243.390,49.517 243.087,49.674 242.793 C 49.965 242.250,50.059 241.717,50.412 238.598 C 50.521 237.637,50.705 236.698,50.820 236.511 C 50.936 236.324,51.059 234.687,51.095 232.873 C 51.130 231.059,51.220 229.514,51.294 229.440 C 51.527 229.208,53.882 230.480,53.882 230.838 C 53.882 231.311,56.558 232.643,56.782 232.281 C 56.895 232.099,57.247 232.179,57.794 232.512 C 58.427 232.896,58.597 232.927,58.486 232.636 C 58.293 232.135,58.657 232.144,59.393 232.660 C 59.930 233.036,59.965 233.033,59.810 232.629 C 59.662 232.244,59.718 232.229,60.246 232.511 C 60.578 232.689,60.925 232.733,61.016 232.609 C 61.107 232.484,61.475 232.349,61.833 232.309 C 62.192 232.269,62.553 232.126,62.636 231.992 C 62.723 231.852,62.946 231.844,63.156 231.974 C 63.388 232.118,63.667 232.058,63.913 231.812 C 64.127 231.598,64.466 231.486,64.666 231.562 C 64.866 231.639,65.030 231.574,65.030 231.416 C 65.030 231.259,65.209 231.200,65.428 231.284 C 65.647 231.368,65.826 231.308,65.826 231.151 C 65.826 230.994,66.012 230.937,66.238 231.024 C 66.465 231.111,66.585 231.076,66.505 230.948 C 66.426 230.819,66.658 230.639,67.022 230.547 C 67.386 230.456,67.684 230.257,67.684 230.105 C 67.684 229.954,67.804 229.903,67.950 229.993 C 68.096 230.084,68.215 230.021,68.215 229.854 C 68.215 229.687,68.363 229.600,68.544 229.661 C 68.726 229.721,69.020 229.642,69.199 229.484 C 70.154 228.640,70.371 228.522,70.648 228.694 C 70.849 228.818,70.878 228.762,70.734 228.529 C 70.575 228.272,70.639 228.225,70.972 228.353 C 71.243 228.456,71.362 228.421,71.266 228.265 C 71.176 228.121,71.201 228.003,71.321 228.003 C 71.440 228.003,71.867 227.698,72.269 227.325 C 72.670 226.953,73.100 226.711,73.224 226.787 C 73.348 226.864,73.659 226.461,73.916 225.892 C 74.198 225.266,74.518 224.910,74.725 224.990 C 74.914 225.062,75.143 224.886,75.234 224.598 C 75.354 224.220,75.609 224.090,76.158 224.128 C 76.716 224.167,76.879 224.081,76.772 223.805 C 76.654 223.497,76.732 223.484,77.199 223.734 C 77.513 223.902,77.770 224.207,77.770 224.411 C 77.770 224.615,78.011 224.858,78.306 224.952 C 78.853 225.125,79.628 226.616,79.628 227.495 C 79.628 228.111,80.450 229.861,80.739 229.861 C 80.858 229.861,80.956 230.038,80.956 230.255 C 80.956 230.764,84.211 232.437,84.356 232.003 C 84.429 231.781,84.640 231.811,85.088 232.105 C 85.662 232.480,85.703 232.479,85.552 232.087 C 85.410 231.715,85.469 231.700,85.990 231.980 C 86.384 232.190,86.531 232.201,86.413 232.011 C 86.311 231.846,86.413 231.719,86.647 231.719 C 86.874 231.719,87.060 231.603,87.060 231.462 C 87.060 231.320,87.240 231.273,87.459 231.357 C 87.678 231.441,87.857 231.382,87.857 231.225 C 87.857 231.067,88.036 231.008,88.255 231.092 C 88.474 231.176,88.653 231.116,88.653 230.959 C 88.653 230.802,88.817 230.736,89.017 230.813 C 89.217 230.890,89.457 230.754,89.550 230.512 C 89.648 230.257,89.886 230.135,90.115 230.223 C 90.333 230.306,90.511 230.246,90.511 230.089 C 90.511 229.932,90.696 229.875,90.923 229.962 C 91.190 230.064,91.269 230.013,91.147 229.816 C 91.019 229.609,91.142 229.560,91.532 229.661 C 91.847 229.744,92.037 229.703,91.956 229.570 C 91.874 229.438,91.940 229.330,92.104 229.330 C 92.267 229.330,92.326 229.210,92.236 229.064 C 92.146 228.918,92.206 228.799,92.369 228.799 C 92.532 228.799,92.579 228.659,92.474 228.488 C 92.346 228.282,92.425 228.233,92.710 228.342 C 92.995 228.452,93.195 228.328,93.308 227.970 C 93.403 227.671,93.633 227.493,93.828 227.567 C 94.036 227.647,94.308 227.386,94.500 226.923 C 94.677 226.495,94.917 226.145,95.032 226.145 C 95.200 226.145,95.217 224.597,95.057 223.694 C 95.039 223.587,94.414 223.191,93.669 222.813 C 92.925 222.436,92.394 222.255,92.490 222.411 C 92.720 222.781,92.219 222.772,91.489 222.393 C 91.170 222.227,90.993 222.181,91.096 222.292 C 91.352 222.567,90.579 223.298,90.248 223.093 C 90.100 223.003,89.980 223.062,89.980 223.225 C 89.980 223.388,89.861 223.448,89.715 223.358 C 89.569 223.267,89.449 223.328,89.449 223.493 C 89.449 223.667,89.236 223.724,88.940 223.630 C 88.575 223.514,88.381 223.623,88.257 224.014 C 88.162 224.314,87.987 224.500,87.868 224.426 C 87.749 224.353,87.278 224.424,86.820 224.583 C 85.823 224.931,85.202 224.556,85.202 223.606 C 85.202 223.268,85.083 222.917,84.937 222.827 C 84.791 222.737,84.672 222.434,84.672 222.154 C 84.672 221.874,84.373 221.449,84.008 221.210 C 83.643 220.971,83.344 220.665,83.344 220.531 C 83.344 220.177,81.960 218.919,80.992 218.393 C 80.090 217.903,79.935 217.213,80.435 215.899 C 80.643 215.352,80.626 215.119,80.369 214.952 C 80.096 214.776,80.106 214.680,80.420 214.479 C 80.814 214.225,81.091 211.697,80.698 211.940 C 80.590 212.006,80.553 211.789,80.617 211.456 C 80.684 211.106,80.555 210.703,80.313 210.502 C 80.083 210.311,79.894 210.012,79.894 209.837 C 79.894 209.663,79.476 209.322,78.965 209.078 C 78.388 208.803,78.036 208.745,78.036 208.925 M308.554 216.067 C 308.769 215.720,310.020 216.309,310.020 216.757 C 310.020 217.418,308.853 219.507,308.404 219.649 C 308.156 219.728,307.805 220.150,307.624 220.588 C 307.443 221.026,307.233 221.322,307.157 221.247 C 307.082 221.172,306.739 221.414,306.396 221.784 C 306.046 222.162,305.636 222.375,305.465 222.270 C 305.288 222.160,305.232 222.198,305.332 222.359 C 305.525 222.671,304.300 223.065,303.903 222.819 C 303.764 222.733,303.648 222.401,303.646 222.081 C 303.643 221.761,303.540 221.339,303.416 221.144 C 303.274 220.920,303.426 220.299,303.826 219.469 C 304.176 218.744,304.435 218.009,304.402 217.835 C 304.305 217.322,304.730 216.304,304.978 216.457 C 305.103 216.535,305.282 216.475,305.375 216.324 C 305.468 216.173,305.656 216.118,305.791 216.202 C 305.927 216.286,306.038 216.216,306.038 216.046 C 306.038 215.875,306.218 215.805,306.437 215.889 C 306.656 215.973,306.835 215.923,306.835 215.778 C 306.835 215.633,307.186 215.696,307.616 215.918 C 308.084 216.160,308.460 216.220,308.554 216.067 M265.585 217.717 C 265.803 218.192,266.200 218.938,266.467 219.376 C 266.965 220.193,266.779 222.108,266.233 221.771 C 266.103 221.690,265.918 221.874,265.821 222.179 C 265.712 222.523,265.499 222.676,265.258 222.584 C 265.011 222.489,264.938 222.546,265.058 222.739 C 265.185 222.946,265.062 222.995,264.673 222.893 C 264.358 222.811,264.101 222.837,264.101 222.951 C 264.101 223.065,263.804 223.159,263.442 223.159 C 263.080 223.159,262.848 223.054,262.927 222.926 C 263.006 222.799,262.943 222.694,262.788 222.694 C 261.951 222.694,263.088 218.739,264.311 217.397 C 264.952 216.693,265.137 216.740,265.585 217.717 " stroke="none" fill="#000000" fill-rule="evenodd"></path></g></svg>